<?xml version="1.0" encoding="UTF-8"?>
<svg width="16px" height="16px" viewBox="0 0 16 16" version="1.1" xmlns="http://www.w3.org/2000/svg" xmlns:xlink="http://www.w3.org/1999/xlink">
    <title>Icons/00_MISC/Add</title>
    <g id="Icons/00_MISC/Add" stroke="none" stroke-width="1" fill="none" fill-rule="evenodd">
        <path d="M8.81818182,14 C9.26988636,14 9.63636364,13.6335227 9.63636364,13.1818182 L9.63636364,9.63636364 L13.1818182,9.63636364 C13.6335227,9.63636364 14,9.26988636 14,8.81818182 L14,7.18181818 C14,6.73011364 13.6335227,6.36363636 13.1818182,6.36363636 L9.63636364,6.36363636 L9.63636364,2.81818182 C9.63636364,2.36647727 9.26988636,2 8.81818182,2 L7.18181818,2 C6.73011364,2 6.36363636,2.36647727 6.36363636,2.81818182 L6.36363636,6.36363636 L2.81818182,6.36363636 C2.36647727,6.36363636 2,6.73011364 2,7.18181818 L2,8.81818182 C2,9.26988636 2.36647727,9.63636364 2.81818182,9.63636364 L6.36363636,9.63636364 L6.36363636,13.1818182 C6.36363636,13.6335227 6.73011364,14 7.18181818,14 L8.81818182,14 Z" id="ï§" fill="#FFFFFF" fill-rule="nonzero"></path>
    </g>
</svg>