<?xml version="1.0" encoding="UTF-8"?>
<svg width="16px" height="16px" viewBox="0 0 16 16" version="1.1" xmlns="http://www.w3.org/2000/svg" xmlns:xlink="http://www.w3.org/1999/xlink">
    <title>Icons/00_MISC/AlarmOFF</title>
    <g id="Icons/00_MISC/AlarmOFF" stroke="none" stroke-width="1" fill="none" fill-rule="evenodd">
        <path d="M8.00000009,2 C8.35491081,2 8.64285723,2.28794643 8.64285723,2.64285714 C8.64285723,2.73660714 8.62276795,2.82366071 8.58928581,2.90401786 C10.3638394,3.16517857 11.4285715,4.57142857 11.4285715,5.85714286 C11.4285715,9.09151786 12.5803572,10.5915179 13.5714287,11.4285714 C13.5714287,11.8973214 13.1830358,12.2857143 12.7142858,12.2857143 L12.7142858,12.2857143 L9.71428581,12.2857143 C9.71428581,13.2299107 8.94419652,14 8.00000009,14 C7.05580366,14 6.28571438,13.2299107 6.28571438,12.2857143 L6.28571438,12.2857143 L3.28571438,12.2857143 C2.81696438,12.2857143 2.42857152,11.8973214 2.42857152,11.4285714 C3.41964295,10.5915179 4.57142866,9.09151786 4.57142866,5.85714286 C4.57142866,4.57142857 5.63616081,3.16517857 7.41071438,2.90401786 C7.37723223,2.82366071 7.35714295,2.73660714 7.35714295,2.64285714 C7.35714295,2.28794643 7.64508938,2 8.00000009,2 Z M6.92857152,12.1785714 C6.86830366,12.1785714 6.82142866,12.2254464 6.82142866,12.2857143 C6.82142866,12.9352679 7.35044652,13.4642857 8.00000009,13.4642857 C8.06026795,13.4642857 8.10714295,13.4174107 8.10714295,13.3571429 C8.10714295,13.296875 8.06026795,13.25 8.00000009,13.25 C7.47098223,13.25 7.03571438,12.8147321 7.03571438,12.2857143 C7.03571438,12.2254464 6.98883938,12.1785714 6.92857152,12.1785714 Z M9.54700149,5.57142857 C9.44016388,5.57142857 9.33332627,5.61471861 9.2564032,5.69264069 L7.99999294,6.96536797 L6.74358268,5.69264069 C6.66665961,5.61471861 6.559822,5.57142857 6.45298439,5.57142857 C6.34614679,5.57142857 6.23930918,5.61471861 6.1623861,5.69264069 L5.58118952,6.28138528 C5.50426644,6.35930736 5.4615314,6.46753247 5.4615314,6.57575758 C5.4615314,6.68398268 5.50426644,6.79220779 5.58118952,6.87012987 L6.83759978,8.14285714 L5.58118952,9.41558442 C5.50426644,9.49350649 5.4615314,9.6017316 5.4615314,9.70995671 C5.4615314,9.81818182 5.50426644,9.92640693 5.58118952,10.004329 L6.1623861,10.5930736 C6.23930918,10.6709957 6.34614679,10.7142857 6.45298439,10.7142857 C6.559822,10.7142857 6.66665961,10.6709957 6.74358268,10.5930736 L7.99999294,9.32034632 L9.2564032,10.5930736 C9.33332627,10.6709957 9.44016388,10.7142857 9.54700149,10.7142857 C9.65383909,10.7142857 9.7606767,10.6709957 9.83759978,10.5930736 L10.4187964,10.004329 C10.4957194,9.92640693 10.5384545,9.81818182 10.5384545,9.70995671 C10.5384545,9.6017316 10.4957194,9.49350649 10.4187964,9.41558442 L9.1623861,8.14285714 L10.4187964,6.87012987 C10.4957194,6.79220779 10.5384545,6.68398268 10.5384545,6.57575758 C10.5384545,6.46753247 10.4957194,6.35930736 10.4187964,6.28138528 L9.83759978,5.69264069 C9.7606767,5.61471861 9.65383909,5.57142857 9.54700149,5.57142857 Z" id="Combined-Shape" fill="#FFFFFF" fill-rule="nonzero"></path>
    </g>
</svg>