<?xml version="1.0" encoding="UTF-8"?>
<svg width="16px" height="16px" viewBox="0 0 16 16" version="1.1" xmlns="http://www.w3.org/2000/svg" xmlns:xlink="http://www.w3.org/1999/xlink">
    <title>Icons/00_MISC/AlarmON</title>
    <g id="Icons/00_MISC/AlarmON" stroke="none" stroke-width="1" fill="none" fill-rule="evenodd">
        <path d="M8.07142857,14 C9.015625,14 9.78571429,13.2299107 9.78571429,12.2857143 L12.7857143,12.2857143 C13.2544643,12.2857143 13.6428571,11.8973214 13.6428571,11.4285714 C12.6517857,10.5915179 11.5,9.09151786 11.5,5.85714286 C11.5,4.57142857 10.4352679,3.16517857 8.66071429,2.90401786 C8.69419643,2.82366071 8.71428571,2.73660714 8.71428571,2.64285714 C8.71428571,2.28794643 8.42633929,2 8.07142857,2 C7.71651786,2 7.42857143,2.28794643 7.42857143,2.64285714 C7.42857143,2.73660714 7.44866071,2.82366071 7.48214286,2.90401786 C5.70758929,3.16517857 4.64285714,4.57142857 4.64285714,5.85714286 C4.64285714,9.09151786 3.49107143,10.5915179 2.5,11.4285714 C2.5,11.8973214 2.88839286,12.2857143 3.35714286,12.2857143 L6.35714286,12.2857143 C6.35714286,13.2299107 7.12723214,14 8.07142857,14 Z M8.07142857,13.4642857 C7.421875,13.4642857 6.89285714,12.9352679 6.89285714,12.2857143 C6.89285714,12.2254464 6.93973214,12.1785714 7,12.1785714 C7.06026786,12.1785714 7.10714286,12.2254464 7.10714286,12.2857143 C7.10714286,12.8147321 7.54241071,13.25 8.07142857,13.25 C8.13169643,13.25 8.17857143,13.296875 8.17857143,13.3571429 C8.17857143,13.4174107 8.13169643,13.4642857 8.07142857,13.4642857 Z" id="" fill="#FFFFFF" fill-rule="nonzero"></path>
    </g>
</svg>