<?xml version="1.0" encoding="UTF-8"?>
<svg width="16px" height="16px" viewBox="0 0 16 16" version="1.1" xmlns="http://www.w3.org/2000/svg" xmlns:xlink="http://www.w3.org/1999/xlink">
    <title>Icons/00_MISC/AlarmSemiOFF</title>
    <g id="Icons/00_MISC/AlarmSemiOFF" stroke="none" stroke-width="1" fill="none" fill-rule="evenodd">
        <path d="M1.94688293,13.9196429 L14.9267628,3.05803571 C15.0169009,2.97767857 15.0238346,2.84375 14.9475639,2.75 L14.3651334,2.10714286 C14.2888627,2.01339286 14.1432551,2.00669643 14.0531171,2.08035714 L11.1548319,4.51116071 C10.6833406,3.72098214 9.8027611,3.07142857 8.61016529,2.90401786 C8.64483378,2.82366071 8.66563487,2.73660714 8.66563487,2.64285714 C8.66563487,2.28794643 8.36748592,2 8,2 C7.63251408,2 7.33436513,2.28794643 7.33436513,2.64285714 C7.33436513,2.73660714 7.35516622,2.82366071 7.38983471,2.90401786 C5.55240513,3.16517857 4.44994738,4.57142857 4.44994738,5.85714286 C4.44994738,9.09151786 3.25735158,10.5915179 2.23116449,11.4285714 C2.23116449,11.5892857 2.27970037,11.7366071 2.36290472,11.8705357 L1.07323717,12.9486607 C0.983099115,13.0223214 0.976165418,13.15625 1.05243608,13.25 L1.63486659,13.8928571 C1.71113725,13.9866071 1.85674488,13.9933036 1.94688293,13.9196429 Z M4.38754411,10.1763393 C5.02544419,9.00446429 5.33746053,7.57142857 5.33746053,5.85714286 C5.33746053,4.99330357 6.18337151,3.71428571 8,3.71428571 C9.31740234,3.71428571 10.1217111,4.38392857 10.468396,5.08705357 L4.38754411,10.1763393 Z M8,14 C8.97765121,14 9.77502631,13.2299107 9.77502631,12.2857143 L12.8813224,12.2857143 C13.3666811,12.2857143 13.7688355,11.8973214 13.7688355,11.4285714 C12.9645267,10.7723214 12.0562125,9.70089286 11.7025939,7.70535714 L10.9329536,8.35491071 C11.2172352,9.57366071 11.7372624,10.5915179 12.5069027,11.4285714 L7.25809447,11.4285714 L6.22497369,12.2924107 C6.23190739,13.2366071 7.02234879,14 8,14 Z M8,13.4642857 C7.32743144,13.4642857 6.77966941,12.9352679 6.77966941,12.2857143 C6.77966941,12.2254464 6.82820529,12.1785714 6.89060856,12.1785714 C6.95301182,12.1785714 7.0015477,12.2254464 7.0015477,12.2857143 C7.0015477,12.8147321 7.45223797,13.25 8,13.25 C8.06240327,13.25 8.11093914,13.296875 8.11093914,13.3571429 C8.11093914,13.4174107 8.06240327,13.4642857 8,13.4642857 Z" id="" fill="#FFFFFF" fill-rule="nonzero"></path>
    </g>
</svg>