<?xml version="1.0" encoding="UTF-8"?>
<svg width="16px" height="16px" viewBox="0 0 16 16" version="1.1" xmlns="http://www.w3.org/2000/svg" xmlns:xlink="http://www.w3.org/1999/xlink">
    <title>Icons/00_MISC/ArrowLeft</title>
    <g id="Icons/00_MISC/ArrowLeft" stroke="none" stroke-width="1" fill="none" fill-rule="evenodd">
        <path d="M8,13.5 C8.2618742,13.5 8.51604621,13.3961564 8.70089859,13.2255563 L13.7150193,8.38941335 C13.8921694,8.21881322 14,7.97403911 14,7.72184761 C14,7.4696561 13.8921694,7.224882 13.7150193,7.04686446 L13.1373556,6.49055968 C12.9525032,6.31995954 12.6983312,6.21611598 12.436457,6.21611598 C12.1745828,6.21611598 11.9204108,6.31995954 11.7432606,6.49055968 L9.478819,8.67127444 L9.478819,3.44942684 C9.478819,2.93020904 9.03209243,2.5 8.49293967,2.5 L7.50706033,2.5 C6.96790757,2.5 6.521181,2.93020904 6.521181,3.44942684 L6.521181,8.67127444 L4.25673941,6.49055968 C4.07958922,6.31995954 3.8254172,6.21611598 3.563543,6.21611598 C3.30166881,6.21611598 3.04749679,6.31995954 2.86264442,6.49055968 L2.29268293,7.04686446 C2.10783055,7.224882 2,7.4696561 2,7.72184761 C2,7.97403911 2.10783055,8.21881322 2.29268293,8.38941335 L7.30680359,13.2255563 C7.48395379,13.3961564 7.7381258,13.5 8,13.5 Z" id="ï£" fill="#FFFFFF" fill-rule="nonzero" transform="translate(8.000000, 8.000000) scale(-1, 1) rotate(-90.000000) translate(-8.000000, -8.000000) "></path>
    </g>
</svg>