<?xml version="1.0" encoding="UTF-8"?>
<svg width="16px" height="16px" viewBox="0 0 16 16" version="1.1" xmlns="http://www.w3.org/2000/svg" xmlns:xlink="http://www.w3.org/1999/xlink">
    <title>Icons/00_MISC/Attach</title>
    <g fill="currentColor">
        <path d="M8.4,16 C7.18666667,16 6.15,15.5833333 5.29,14.75 C4.43,13.9166667 4,12.8933333 4,11.68 L4,3.08 C4,2.22666667 4.30333333,1.5 4.91,0.9 C5.51666667,0.3 6.24666667,0 7.1,0 C7.96666667,0 8.7,0.3 9.3,0.9 C9.9,1.5 10.2,2.23333333 10.2,3.1 L10.2,10.98 C10.2,11.4866667 10.0266667,11.9166667 9.68,12.27 C9.33333333,12.6233333 8.90666667,12.8 8.4,12.8 C7.89333333,12.8 7.46666667,12.61 7.12,12.23 C6.77333333,11.85 6.6,11.4 6.6,10.88 L6.6,3.44 C6.6,3.33333333 6.64,3.24 6.72,3.16 C6.8,3.08 6.89333333,3.04 7,3.04 C7.10666667,3.04 7.2,3.08 7.28,3.16 C7.36,3.24 7.4,3.33333333 7.4,3.44 L7.4,10.94 C7.4,11.2333333 7.49666667,11.4833333 7.69,11.69 C7.88333333,11.8966667 8.12,12 8.4,12 C8.68,12 8.91666667,11.9 9.11,11.7 C9.30333333,11.5 9.4,11.26 9.4,10.98 L9.4,3.08 C9.4,2.44 9.17666667,1.9 8.73,1.46 C8.28333333,1.02 7.74,0.8 7.1,0.8 C6.46,0.8 5.91666667,1.02 5.47,1.46 C5.02333333,1.9 4.8,2.44 4.8,3.08 L4.8,11.72 C4.8,12.6933333 5.15333333,13.5166667 5.86,14.19 C6.56666667,14.8633333 7.41333333,15.2 8.4,15.2 C9.4,15.2 10.25,14.86 10.95,14.18 C11.65,13.5 12,12.6666667 12,11.68 L12,3.44 C12,3.33333333 12.04,3.24 12.12,3.16 C12.2,3.08 12.2933333,3.04 12.4,3.04 C12.5066667,3.04 12.6,3.08 12.68,3.16 C12.76,3.24 12.8,3.33333333 12.8,3.44 L12.8,11.66 C12.8,12.8733333 12.37,13.9 11.51,14.74 C10.65,15.58 9.61333333,16 8.4,16 Z" fill="#D9D9D9" fill-rule="nonzero"></path>
    </g>
</svg>