<?xml version="1.0" encoding="UTF-8"?>
<svg width="16px" height="16px" viewBox="0 0 16 16" version="1.1" xmlns="http://www.w3.org/2000/svg" xmlns:xlink="http://www.w3.org/1999/xlink">
    <title>Icons/00_MISC/Brightness</title>
    <g id="Icons/00_MISC/Brightness" stroke="none" stroke-width="1" fill="none" fill-rule="evenodd">
        <path d="M8,13.2072648 C8.27080963,13.2072648 8.49015317,13.4266083 8.49015317,13.6974179 L8.49015317,14.5098468 C8.49015317,14.7806565 8.27080963,15 8,15 C7.72919037,15 7.50984683,14.7806565 7.50984683,14.5098468 L7.50984683,13.6974179 C7.50984683,13.4266083 7.72919037,13.2072648 8,13.2072648 Z M12.3755361,11.6819694 L12.9499344,12.2563676 C13.1414004,12.4478337 13.1414004,12.7581619 12.9499344,12.949628 C12.8540481,13.0455142 12.7284464,13.0933042 12.603151,13.0933042 C12.4778556,13.0933042 12.3522538,13.0455142 12.256674,12.949628 L11.6822757,12.3752298 C11.4908096,12.1837637 11.4908096,11.8734354 11.6822757,11.6819694 C11.8737418,11.4905033 12.18407,11.4905033 12.3755361,11.6819694 Z M4.31803063,11.6819694 C4.50949672,11.8734354 4.50949672,12.1837637 4.31803063,12.3752298 L3.74363239,12.949628 C3.64774617,13.0455142 3.52214442,13.0933042 3.39684902,13.0933042 C3.27155361,13.0933042 3.14595186,13.0455142 3.05037199,12.949628 C2.85890591,12.7581619 2.85890591,12.4478337 3.05037199,12.2563676 L3.62477024,11.6819694 C3.81623632,11.4905033 4.12656455,11.4905033 4.31803063,11.6819694 Z M8,3.82787746 C10.3043326,3.82787746 12.1721225,5.6956674 12.1721225,8 C12.1721225,10.3043326 10.3043326,12.1721225 8,12.1721225 C5.6956674,12.1721225 3.82787746,10.3043326 3.82787746,8 C3.82787746,5.6956674 5.6956674,3.82787746 8,3.82787746 Z M8,5.51737418 C6.6287965,5.51737418 5.51737418,6.6287965 5.51737418,8 C5.51737418,9.3712035 6.6287965,10.4826258 8,10.4826258 L8,10.4826258 Z M14.5098468,7.50984683 C14.7806565,7.50984683 15,7.72919037 15,8 C15,8.27080963 14.7806565,8.49015317 14.5098468,8.49015317 L13.6974179,8.49015317 C13.4266083,8.49015317 13.2072648,8.27080963 13.2072648,8 C13.2072648,7.72919037 13.4266083,7.50984683 13.6974179,7.50984683 L14.5098468,7.50984683 Z M2.30258206,7.50984683 C2.57339168,7.50984683 2.79273523,7.72919037 2.79273523,8 C2.79273523,8.27080963 2.57339168,8.49015317 2.30258206,8.49015317 L1.49015317,8.49015317 C1.21934354,8.49015317 1,8.27080963 1,8 C1,7.72919037 1.21934354,7.50984683 1.49015317,7.50984683 L2.30258206,7.50984683 Z M12.9499344,3.05006565 C13.1414004,3.24153173 13.1414004,3.55185996 12.9499344,3.74332604 L12.3755361,4.31772429 C12.2796499,4.4136105 12.1540481,4.46140044 12.0287527,4.46140044 C11.9034573,4.46140044 11.7778556,4.4136105 11.6822757,4.31772429 C11.4908096,4.12625821 11.4908096,3.81592998 11.6822757,3.62446389 L12.256674,3.05006565 C12.44814,2.85859956 12.7584683,2.85859956 12.9499344,3.05006565 Z M3.74363239,3.05006565 L4.31803063,3.62446389 C4.50949672,3.81592998 4.50949672,4.12625821 4.31803063,4.31772429 C4.22214442,4.4136105 4.09684902,4.46140044 3.97124726,4.46140044 C3.84595186,4.46140044 3.72035011,4.4136105 3.62477024,4.31772429 L3.05037199,3.74332604 C2.85890591,3.55185996 2.85890591,3.24153173 3.05037199,3.05006565 C3.24183807,2.85859956 3.5521663,2.85859956 3.74363239,3.05006565 Z M8,1 C8.27080963,1 8.49015317,1.21934354 8.49015317,1.49015317 L8.49015317,2.30258206 C8.49015317,2.57339168 8.27080963,2.79273523 8,2.79273523 C7.72919037,2.79273523 7.50984683,2.57339168 7.50984683,2.30258206 L7.50984683,1.49015317 C7.50984683,1.21934354 7.72919037,1 8,1 Z" id="Combined-Shape" fill="#FFFFFF" fill-rule="nonzero"></path>
    </g>
</svg>