<svg version="1.0" xmlns="http://www.w3.org/2000/svg" width="512" height="512" viewBox="0 0 512 512">
	<g transform="translate(0,512) scale(0.1,-0.1)" fill="currentColor" stroke="none">
		<path d="M345 5106 c-84 -21 -147 -57 -211 -121 -65 -65 -105 -136 -123 -223
		-8 -37 -11 -339 -11 -987 l0 -935 1140 0 1140 0 0 1140 0 1140 -942 -1 c-719
		0 -955 -4 -993 -13z m865 -646 c64 -33 80 -76 80 -215 l0 -115 115 0 c96 0
		122 -3 155 -20 45 -23 80 -80 80 -130 0 -50 -35 -107 -80 -130 -33 -17 -59
		-20 -155 -20 l-115 0 0 -115 c0 -139 -16 -182 -80 -215 -51 -26 -93 -25 -142
		2 -63 36 -78 76 -78 213 l0 115 -116 0 c-102 0 -121 3 -156 22 -45 25 -78 80
		-78 128 0 48 33 103 78 128 35 19 54 22 156 22 l116 0 0 118 c1 136 13 170 76
		208 48 29 92 30 144 4z"/>
		<path d="M2580 4010 c0 -610 2 -1110 3 -1110 2 0 42 25 87 56 158 105 354 192
		535 237 181 45 240 52 450 51 175 -1 215 -4 326 -27 284 -60 527 -169 741
		-333 45 -35 64 -44 97 -44 l41 0 0 935 c0 658 -3 950 -11 987 -37 172 -176
		311 -347 347 -37 8 -339 11 -987 11 l-935 0 0 -1110z m1560 100 c45 -23 80
		-80 80 -130 0 -50 -35 -107 -80 -130 -37 -19 -58 -20 -421 -20 -376 0 -382 0
		-421 22 -101 57 -102 194 -2 254 l39 24 383 0 c364 0 385 -1 422 -20z"/>
		<path d="M3505 2943 c-183 -22 -369 -75 -509 -145 -426 -213 -715 -597 -802
		-1063 -26 -138 -26 -382 0 -520 145 -776 866 -1304 1642 -1201 635 84 1142
		567 1260 1201 26 138 26 383 0 520 -118 632 -625 1118 -1253 1200 -104 14
		-262 18 -338 8z m569 -1092 c44 -30 66 -70 66 -125 0 -58 -24 -102 -72 -131
		-31 -19 -51 -20 -423 -20 -372 0 -392 1 -423 20 -95 57 -98 195 -6 256 27 18
		54 19 429 19 375 0 402 -1 429 -19z m0 -500 c44 -30 66 -70 66 -125 0 -58 -24
		-102 -72 -131 -31 -19 -51 -20 -423 -20 -372 0 -392 1 -423 20 -95 57 -98 195
		-6 256 27 18 54 19 429 19 375 0 402 -1 429 -19z"/>
		<path d="M0 1605 c0 -658 3 -950 11 -987 37 -172 175 -310 347 -347 37 -8 329
		-11 987 -11 l935 0 0 41 c0 33 -9 52 -44 97 -164 214 -273 457 -333 741 -23
		111 -26 151 -27 326 -1 210 6 269 51 450 45 181 132 377 237 535 31 45 56 85
		56 87 0 1 -499 3 -1110 3 l-1110 0 0 -935z m953 179 c18 -9 67 -50 110 -92
		l77 -77 78 77 c42 42 91 83 109 92 122 61 258 -75 197 -197 -9 -18 -50 -67
		-92 -109 l-77 -78 77 -77 c42 -43 83 -92 92 -110 61 -122 -75 -258 -197 -197
		-18 9 -67 50 -109 92 l-78 77 -77 -77 c-43 -42 -92 -83 -110 -92 -122 -61
		-258 75 -197 197 9 18 50 67 92 110 l77 77 -77 78 c-42 42 -83 91 -92 109 -61
		122 75 258 197 197z"/>
	</g>
</svg>
