<?xml version="1.0" encoding="UTF-8"?>
<svg width="16px" height="16px" viewBox="0 0 16 16" version="1.1" xmlns="http://www.w3.org/2000/svg" xmlns:xlink="http://www.w3.org/1999/xlink">
    <title>Icons/00_MISC/Calendar</title>
    <g id="Icons/00_MISC/Calendar" stroke="none" stroke-width="1" fill="none" fill-rule="evenodd">
        <path d="M3.34615385,13.1428571 L5.25,13.1428571 L5.25,11.2142857 L3.34615385,11.2142857 L3.34615385,13.1428571 Z M5.67307692,13.1428571 L7.78846154,13.1428571 L7.78846154,11.2142857 L5.67307692,11.2142857 L5.67307692,13.1428571 Z M3.34615385,10.7857143 L5.25,10.7857143 L5.25,8.64285714 L3.34615385,8.64285714 L3.34615385,10.7857143 Z M5.67307692,10.7857143 L7.78846154,10.7857143 L7.78846154,8.64285714 L5.67307692,8.64285714 L5.67307692,10.7857143 Z M3.34615385,8.21428571 L5.25,8.21428571 L5.25,6.28571429 L3.34615385,6.28571429 L3.34615385,8.21428571 Z M8.21153846,13.1428571 L10.3269231,13.1428571 L10.3269231,11.2142857 L8.21153846,11.2142857 L8.21153846,13.1428571 Z M5.67307692,8.21428571 L7.78846154,8.21428571 L7.78846154,6.28571429 L5.67307692,6.28571429 L5.67307692,8.21428571 Z M10.75,13.1428571 L12.6538462,13.1428571 L12.6538462,11.2142857 L10.75,11.2142857 L10.75,13.1428571 Z M8.21153846,10.7857143 L10.3269231,10.7857143 L10.3269231,8.64285714 L8.21153846,8.64285714 L8.21153846,10.7857143 Z M5.88461538,5 L5.88461538,3.07142857 C5.88461538,3.01339257 5.8636821,2.96316985 5.8218149,2.92075893 C5.77994771,2.878348 5.73036888,2.85714286 5.67307692,2.85714286 L5.25,2.85714286 C5.19270805,2.85714286 5.14312922,2.878348 5.10126202,2.92075893 C5.05939482,2.96316985 5.03846154,3.01339257 5.03846154,3.07142857 L5.03846154,5 C5.03846154,5.058036 5.05939482,5.10825872 5.10126202,5.15066964 C5.14312922,5.19308057 5.19270805,5.21428571 5.25,5.21428571 L5.67307692,5.21428571 C5.73036888,5.21428571 5.77994771,5.19308057 5.8218149,5.15066964 C5.8636821,5.10825872 5.88461538,5.058036 5.88461538,5 Z M10.75,10.7857143 L12.6538462,10.7857143 L12.6538462,8.64285714 L10.75,8.64285714 L10.75,10.7857143 Z M8.21153846,8.21428571 L10.3269231,8.21428571 L10.3269231,6.28571429 L8.21153846,6.28571429 L8.21153846,8.21428571 Z M10.75,8.21428571 L12.6538462,8.21428571 L12.6538462,6.28571429 L10.75,6.28571429 L10.75,8.21428571 Z M10.9615385,5 L10.9615385,3.07142857 C10.9615385,3.01339257 10.9406052,2.96316985 10.898738,2.92075893 C10.8568708,2.878348 10.807292,2.85714286 10.75,2.85714286 L10.3269231,2.85714286 C10.2696311,2.85714286 10.2200523,2.878348 10.1781851,2.92075893 C10.1363179,2.96316985 10.1153846,3.01339257 10.1153846,3.07142857 L10.1153846,5 C10.1153846,5.058036 10.1363179,5.10825872 10.1781851,5.15066964 C10.2200523,5.19308057 10.2696311,5.21428571 10.3269231,5.21428571 L10.75,5.21428571 C10.807292,5.21428571 10.8568708,5.19308057 10.898738,5.15066964 C10.9406052,5.10825872 10.9615385,5.058036 10.9615385,5 Z M13.5,4.57142857 L13.5,13.1428571 C13.5,13.3750012 13.4162669,13.575892 13.2487981,13.7455357 C13.0813293,13.9151794 12.883014,14 12.6538462,14 L3.34615385,14 C3.11698603,14 2.91867071,13.9151794 2.75120192,13.7455357 C2.58373314,13.575892 2.5,13.3750012 2.5,13.1428571 L2.5,4.57142857 C2.5,4.33928455 2.58373314,4.13839371 2.75120192,3.96875 C2.91867071,3.79910629 3.11698603,3.71428571 3.34615385,3.71428571 L4.19230769,3.71428571 L4.19230769,3.07142857 C4.19230769,2.77678424 4.29587236,2.52455462 4.50300481,2.31473214 C4.71013725,2.10490967 4.95913316,2 5.25,2 L5.67307692,2 C5.96394376,2 6.21293967,2.10490967 6.42007212,2.31473214 C6.62720456,2.52455462 6.73076923,2.77678424 6.73076923,3.07142857 L6.73076923,3.71428571 L9.26923077,3.71428571 L9.26923077,3.07142857 C9.26923077,2.77678424 9.37279544,2.52455462 9.57992788,2.31473214 C9.78706033,2.10490967 10.0360562,2 10.3269231,2 L10.75,2 C11.0408668,2 11.2898627,2.10490967 11.4969952,2.31473214 C11.7041276,2.52455462 11.8076923,2.77678424 11.8076923,3.07142857 L11.8076923,3.71428571 L12.6538462,3.71428571 C12.883014,3.71428571 13.0813293,3.79910629 13.2487981,3.96875 C13.4162669,4.13839371 13.5,4.33928455 13.5,4.57142857 Z" id="ï³" fill="#FFFFFF" fill-rule="nonzero"></path>
    </g>
</svg>