<?xml version="1.0" encoding="UTF-8"?>
<svg width="16px" height="16px" viewBox="0 0 16 16" version="1.1" xmlns="http://www.w3.org/2000/svg" xmlns:xlink="http://www.w3.org/1999/xlink">
    <title>Icons/00_MISC/Check</title>
    <g id="Icons/00_MISC/Check" stroke="none" stroke-width="1" fill="none" fill-rule="evenodd">
        <path d="M6.59870968,12.5 C6.79225806,12.5 6.98580645,12.4242424 7.12516129,12.2878788 L8.17806452,11.2575758 L13.7832258,5.77272727 C13.9225806,5.63636364 14,5.4469697 14,5.25757576 C14,5.06818182 13.9225806,4.87878788 13.7832258,4.74242424 L12.7303226,3.71212121 C12.5909677,3.57575758 12.3974194,3.5 12.203871,3.5 C12.0103226,3.5 11.8167742,3.57575758 11.6774194,3.71212121 L6.59870968,8.68939394 L4.32258065,6.45454545 C4.18322581,6.31818182 3.98967742,6.24242424 3.79612903,6.24242424 C3.60258065,6.24242424 3.40903226,6.31818182 3.26967742,6.45454545 L2.21677419,7.48484848 C2.07741935,7.62121212 2,7.81060606 2,8 C2,8.18939394 2.07741935,8.37878788 2.21677419,8.51515152 L5.01935484,11.2575758 L6.07225806,12.2878788 C6.2116129,12.4242424 6.40516129,12.5 6.59870968,12.5 Z" id="" fill="#FFFFFF" fill-rule="nonzero"></path>
    </g>
</svg>