<?xml version="1.0" encoding="UTF-8"?>
<svg width="16px" height="16px" viewBox="0 0 16 16" version="1.1" xmlns="http://www.w3.org/2000/svg" xmlns:xlink="http://www.w3.org/1999/xlink">
    <title>Icons/00_MISC/Clear</title>
    <g id="Icons/00_MISC/Clear" stroke="none" stroke-width="1" fill="none" fill-rule="evenodd">
        <path d="M6.59195684,6.75280073 C6.76830773,6.49321304 7.11313669,6.42790796 7.36349197,6.61076218 C7.61384725,6.79035115 7.67525514,7.14952909 7.50047882,7.40911678 C7.40915425,7.54462482 5.47086907,10.3870284 3.09643035,10.7951852 C3.356233,11.1919135 3.85221986,11.7665982 4.75129447,12.4376079 C5.35592608,12.2612842 6.2093384,11.8433317 6.89112352,10.8539597 C6.89112352,10.8539597 6.49118491,12.3772007 5.73382083,13.1053523 C5.94008839,13.2326973 6.15895244,13.3616748 6.39513666,13.4939176 C6.63132088,13.6245277 6.85648317,13.7420769 7.0721981,13.8498303 C7.23910161,12.7935206 8.24209728,11.6049681 8.24209728,11.6049681 C7.82326392,12.7412765 7.96025077,13.7094243 8.15234727,14.3298226 C9.1852596,14.7330815 9.92057982,14.8441001 10.38665,14.848998 C9.40254909,12.5731159 10.6149614,9.32745349 10.6732202,9.17398656 C10.7850141,8.87848107 11.1077992,8.73317727 11.3912202,8.85072641 C11.6762159,8.96664293 11.8163518,9.29969883 11.704558,9.59520432 C11.6919615,9.63112211 10.3567333,13.216371 11.7140053,14.9110378 C11.8210755,15.0449132 11.8651632,15.2212369 11.8320975,15.3910301 C11.7990317,15.562456 11.6951106,15.7077598 11.5471018,15.7877585 C11.4715229,15.8302068 11.115672,16 10.4181412,16 C9.51906664,16 8.04842621,15.7159229 5.87238225,14.5061463 C2.00998293,12.3576092 1.72341274,10.5143733 1.70294344,10.3119276 C1.68562326,10.1388691 1.7454566,9.9690759 1.86354871,9.84662888 C1.98321538,9.72418185 2.1501189,9.66540728 2.31387329,9.68336618 C4.42221112,9.91519921 6.56991298,6.78382064 6.59195684,6.75280073 Z M7.56346128,5.16425467 C8.14132534,4.86548393 8.72391309,4.87038181 9.29547891,5.17894831 C10.0292246,5.57567667 10.7613956,5.97567028 11.4856939,6.39035754 C12.3375317,6.87688038 12.6870843,7.8580892 12.3548519,8.78542133 C12.3296589,8.85725692 12.2950185,8.92582725 12.2603782,9.00909123 C10.4260141,7.9968625 8.60424642,6.99116427 6.76988229,5.97893554 C6.95253142,5.61322709 7.21705775,5.34384364 7.56346128,5.16425467 Z M12.4776677,0.254945312 C12.6178036,0.0247449063 12.7658124,-0.0389275463 13.0287642,0.0214796523 C13.2696721,0.07698897 13.4696414,0.201068621 13.6145011,0.410044876 C13.7105493,0.547185543 13.7262949,0.690856718 13.6585888,0.854119417 C13.0019966,2.38552353 12.3485536,3.91856028 11.693536,5.45159702 C11.6840887,5.46955592 11.6730667,5.48588219 11.6525974,5.52016735 C11.0747334,5.20017246 10.5047421,4.88507545 9.93475087,4.56997845 C9.92215438,4.56344794 9.91428157,4.54875429 9.89853596,4.5307954 C9.92372894,4.48671447 9.94734736,4.44263354 9.97411491,4.39855261 C10.8086325,3.01735018 11.6431501,1.63614775 12.4776677,0.254945312 Z" id="Combined-Shape" fill="#FFFFFF" fill-rule="nonzero"></path>
    </g>
</svg>