<?xml version="1.0" encoding="UTF-8"?>
<svg width="16px" height="16px" viewBox="0 0 16 16" version="1.1" xmlns="http://www.w3.org/2000/svg" xmlns:xlink="http://www.w3.org/1999/xlink">
    <title>Icons/00_MISC/Close</title>
    <g id="Icons/00_MISC/Close" stroke="none" stroke-width="1" fill="none" fill-rule="evenodd">
        <path d="M11.047138,13 C11.2575758,13 11.4680135,12.9158249 11.6195286,12.7643098 L12.7643098,11.6195286 C12.9158249,11.4680135 13,11.2575758 13,11.047138 C13,10.8367003 12.9158249,10.6262626 12.7643098,10.4747475 L10.2895623,8 L12.7643098,5.52525253 C12.9158249,5.37373737 13,5.16329966 13,4.95286195 C13,4.74242424 12.9158249,4.53198653 12.7643098,4.38047138 L11.6195286,3.23569024 C11.4680135,3.08417508 11.2575758,3 11.047138,3 C10.8367003,3 10.6262626,3.08417508 10.4747475,3.23569024 L8,5.71043771 L5.52525253,3.23569024 C5.37373737,3.08417508 5.16329966,3 4.95286195,3 C4.74242424,3 4.53198653,3.08417508 4.38047138,3.23569024 L3.23569024,4.38047138 C3.08417508,4.53198653 3,4.74242424 3,4.95286195 C3,5.16329966 3.08417508,5.37373737 3.23569024,5.52525253 L5.71043771,8 L3.23569024,10.4747475 C3.08417508,10.6262626 3,10.8367003 3,11.047138 C3,11.2575758 3.08417508,11.4680135 3.23569024,11.6195286 L4.38047138,12.7643098 C4.53198653,12.9158249 4.74242424,13 4.95286195,13 C5.16329966,13 5.37373737,12.9158249 5.52525253,12.7643098 L8,10.2895623 L10.4747475,12.7643098 C10.6262626,12.9158249 10.8367003,13 11.047138,13 Z" id="ï€" fill="#FFFFFF" fill-rule="nonzero"></path>
    </g>
</svg>