<?xml version="1.0" encoding="UTF-8"?>
<svg width="16px" height="16px" viewBox="0 0 16 16" version="1.1" xmlns="http://www.w3.org/2000/svg" xmlns:xlink="http://www.w3.org/1999/xlink">
    <title>Icons/00_MISC/ColumnFilter</title>
    <g id="Icons/00_MISC/ColumnFilter" stroke="none" stroke-width="1" fill="none" fill-rule="evenodd">
        <g transform="translate(0.000000, 1.677127)" fill="#D9D9D9" fill-rule="nonzero" id="Group">
            <g>
                <polygon id="Path" points="4.6911648 0 2.12851051 2.59250083 0.850198248 1.29625041 0 2.15837923 2.12851051 4.32287285 5.54136305 0.862128814"></polygon>
                <polygon id="Path" points="13.9219889 9.45394814 15.3073296 9.45394814 15.3073296 9.80514335 14.6146592 9.80514335 14.6146592 10.5075338 15.3073296 10.5075338 15.3073296 10.858729 13.9219889 10.858729 13.9219889 11.5611194 16 11.5611194 16 8.75155774 13.9219889 8.75155774"></polygon>
                <polygon id="Path" points="14.6146592 3.13243448 15.3073296 3.13243448 15.3073296 0.322872846 13.9219889 0.322872846 13.9219889 1.02526325 14.6146592 1.02526325"></polygon>
                <polygon id="Path" points="13.9219889 5.2396057 15.1687955 5.2396057 13.9219889 6.71462555 13.9219889 7.34677692 16 7.34677692 16 6.64438651 14.7531933 6.64438651 16 5.16936666 16 4.53721529 13.9219889 4.53721529"></polygon>
                <polygon id="Path" points="7 1.32287285 13 1.32287285 13 2.72765366 7 2.72765366"></polygon>
                <polygon id="Path" points="3 9.32287285 13 9.32287285 13 10.7276537 3 10.7276537"></polygon>
                <polygon id="Path" points="3 5.32287285 12.6973853 5.32287285 12.6973853 6.72765366 3 6.72765366"></polygon>
            </g>
        </g>
    </g>
</svg>