<?xml version="1.0" encoding="UTF-8"?>
<svg width="16px" height="16px" viewBox="0 0 16 16" version="1.1" xmlns="http://www.w3.org/2000/svg" xmlns:xlink="http://www.w3.org/1999/xlink">
    <title>Icons/00_MISC/Contrast</title>
    <g id="Icons/00_MISC/Contrast" stroke="none" stroke-width="1" fill="none" fill-rule="evenodd">
        <path d="M8,14 C9.66071429,14 11.0758929,13.4151786 12.2455357,12.2455357 C13.4151786,11.0758929 14,9.66071429 14,8 C14,6.33928571 13.4151786,4.92410714 12.2455357,3.75446429 C11.0758929,2.58482143 9.66071429,2 8,2 C6.33928571,2 4.91964286,2.58928571 3.74107143,3.76785714 C2.58035714,4.92857143 2,6.33928571 2,8 C2,9.66071429 2.58482143,11.0758929 3.75446429,12.2455357 C4.92410714,13.4151786 6.33928571,14 8,14 Z M8,13.1428571 L8,2.85714286 C9.42857143,2.85714286 10.6428571,3.35714286 11.6428571,4.35714286 C12.6428571,5.35714286 13.1428571,6.57142857 13.1428571,8 C13.1428571,9.42857143 12.6428571,10.6428571 11.6428571,11.6428571 C10.6428571,12.6428571 9.42857143,13.1428571 8,13.1428571 L8,13.1428571 Z" id="" fill="#FFFFFF" fill-rule="nonzero"></path>
    </g>
</svg>