<?xml version="1.0" encoding="UTF-8"?>
<svg width="16px" height="16px" viewBox="0 0 16 16" version="1.1" xmlns="http://www.w3.org/2000/svg" xmlns:xlink="http://www.w3.org/1999/xlink">
    <title>Icons/00_MISC/Copy</title>
    <g id="Icons/00_MISC/Copy" stroke="none" stroke-width="1" fill="none" fill-rule="evenodd">
        <path d="M11.6342857,5.65118317 L11.6342857,4.15687993 C11.6319257,3.51717385 11.1701903,3 10.6014286,3 L3.03285714,3 C2.46409539,3 2.00236001,3.51717385 2,4.15687993 L2,10.1822962 C2.00236001,10.8220023 2.46409539,11.3391817 3.03285714,11.3391762 L4.36571429,11.3391762 L4.36571429,11.6503067 C4.36571429,12.3957217 4.90297259,13 5.56571429,13 L12.8,13 C13.1182598,13 13.4234845,12.8578006 13.6485281,12.604684 C13.8735718,12.3515674 14,12.0082677 14,11.6503067 L14,7.00087642 C14,6.64291552 13.8735718,6.29961576 13.6485281,6.04649917 C13.4234845,5.79338259 13.1182598,5.65118317 12.8,5.65118317 L11.6342857,5.65118317 Z M3.03285714,10.4233129 C2.90504267,10.4233129 2.80142857,10.3067735 2.80142857,10.1630149 L2.80142857,4.15687993 C2.80142857,4.01312132 2.90504267,3.89658195 3.03285714,3.89658195 L10.6014286,3.89658195 C10.729243,3.89658195 10.8328571,4.01312132 10.8328571,4.15687993 L10.8328571,5.65118317 L5.56571429,5.65118317 C4.90297259,5.65118317 4.36571429,6.25546142 4.36571429,7.00087642 L4.36571429,10.4233129 L3.03285714,10.4233129 Z M13.1985714,11.6310254 C13.1985714,11.8794014 13.0208164,12.0814944 12.8,12.0841367 L5.56571429,12.0841367 C5.34489791,12.0814944 5.16714286,11.8794014 5.16714286,11.6310254 L5.16714286,7.00087642 C5.16714286,6.75250039 5.34489791,6.55040742 5.56571429,6.54776512 L12.8,6.54776512 C13.0208164,6.55040742 13.1985714,6.75250039 13.1985714,7.00087642 L13.1985714,11.6310254 Z" id="Shape" fill="#FFFFFF" fill-rule="nonzero"></path>
    </g>
</svg>