<?xml version="1.0" encoding="UTF-8"?>
<svg width="16px" height="16px" viewBox="0 0 16 16" version="1.1" xmlns="http://www.w3.org/2000/svg" xmlns:xlink="http://www.w3.org/1999/xlink">
    <title>Icons/00_MISC/Direction</title>
    <g id="Icons/00_MISC/Direction" stroke="none" stroke-width="1" fill="none" fill-rule="evenodd">
        <path d="M11.8078704,11.1470853 L14.9189815,8.27902979 C14.9675926,8.23041868 15,8.15750202 15,8.08458535 C15,8.01166868 14.9675926,7.94685387 14.9189815,7.89824276 L11.8078704,5.06259461 C11.7268519,4.99777979 11.6215278,4.98157609 11.5243056,5.02208535 C11.4270833,5.06259461 11.3703704,5.15171498 11.3703704,5.25703905 L11.3703704,7.07185387 L1.25925926,7.07185387 C1.11342593,7.07185387 1,7.18527979 1,7.33111313 L1,8.88666868 C1,9.03250202 1.11342593,9.14592794 1.25925926,9.14592794 L11.3703704,9.14592794 L11.3703704,10.9607428 C11.3703704,11.0660668 11.4351852,11.1551872 11.5243056,11.1956965 C11.6215278,11.2362057 11.7268519,11.220002 11.8078704,11.1470853 Z" id="" fill="#FFFFFF" fill-rule="nonzero"></path>
    </g>
</svg>