<?xml version="1.0" encoding="UTF-8"?>
<svg width="16px" height="16px" viewBox="0 0 16 16" version="1.1" xmlns="http://www.w3.org/2000/svg" xmlns:xlink="http://www.w3.org/1999/xlink">
    <title>Icons/00_MISC/DragVertical</title>
    <g id="Icons/00_MISC/DragVertical" stroke="none" stroke-width="1" fill="none" fill-rule="evenodd">
        <path d="M6.4375,13.173913 C6.95526695,13.173913 7.375,13.5826965 7.375,14.0869565 C7.375,14.5912165 6.95526695,15 6.4375,15 C5.91973305,15 5.5,14.5912165 5.5,14.0869565 C5.5,13.5826965 5.91973305,13.173913 6.4375,13.173913 Z M9.5625,13.173913 C10.080267,13.173913 10.5,13.5826965 10.5,14.0869565 C10.5,14.5912165 10.080267,15 9.5625,15 C9.04473305,15 8.625,14.5912165 8.625,14.0869565 C8.625,13.5826965 9.04473305,13.173913 9.5625,13.173913 Z M6.4375,10.1304348 C6.95526695,10.1304348 7.375,10.5392183 7.375,11.0434783 C7.375,11.5477382 6.95526695,11.9565217 6.4375,11.9565217 C5.91973305,11.9565217 5.5,11.5477382 5.5,11.0434783 C5.5,10.5392183 5.91973305,10.1304348 6.4375,10.1304348 Z M9.5625,10.1304348 C10.080267,10.1304348 10.5,10.5392183 10.5,11.0434783 C10.5,11.5477382 10.080267,11.9565217 9.5625,11.9565217 C9.04473305,11.9565217 8.625,11.5477382 8.625,11.0434783 C8.625,10.5392183 9.04473305,10.1304348 9.5625,10.1304348 Z M6.4375,7.08695652 C6.95526695,7.08695652 7.375,7.49574001 7.375,8 C7.375,8.50425999 6.95526695,8.91304348 6.4375,8.91304348 C5.91973305,8.91304348 5.5,8.50425999 5.5,8 C5.5,7.49574001 5.91973305,7.08695652 6.4375,7.08695652 Z M9.5625,7.08695652 C10.080267,7.08695652 10.5,7.49574001 10.5,8 C10.5,8.50425999 10.080267,8.91304348 9.5625,8.91304348 C9.04473305,8.91304348 8.625,8.50425999 8.625,8 C8.625,7.49574001 9.04473305,7.08695652 9.5625,7.08695652 Z M6.4375,4.04347826 C6.95526695,4.04347826 7.375,4.45226175 7.375,4.95652174 C7.375,5.46078173 6.95526695,5.86956522 6.4375,5.86956522 C5.91973305,5.86956522 5.5,5.46078173 5.5,4.95652174 C5.5,4.45226175 5.91973305,4.04347826 6.4375,4.04347826 Z M9.5625,4.04347826 C10.080267,4.04347826 10.5,4.45226175 10.5,4.95652174 C10.5,5.46078173 10.080267,5.86956522 9.5625,5.86956522 C9.04473305,5.86956522 8.625,5.46078173 8.625,4.95652174 C8.625,4.45226175 9.04473305,4.04347826 9.5625,4.04347826 Z M6.4375,1 C6.95526695,1 7.375,1.40878349 7.375,1.91304348 C7.375,2.41730347 6.95526695,2.82608696 6.4375,2.82608696 C5.91973305,2.82608696 5.5,2.41730347 5.5,1.91304348 C5.5,1.40878349 5.91973305,1 6.4375,1 Z M9.5625,1 C10.080267,1 10.5,1.40878349 10.5,1.91304348 C10.5,2.41730347 10.080267,2.82608696 9.5625,2.82608696 C9.04473305,2.82608696 8.625,2.41730347 8.625,1.91304348 C8.625,1.40878349 9.04473305,1 9.5625,1 Z" id="Combined-Shape" fill="#FFFFFF" transform="translate(8.000000, 8.000000) rotate(-180.000000) translate(-8.000000, -8.000000) "></path>
    </g>
</svg>