<?xml version="1.0" encoding="UTF-8"?>
<svg width="16px" height="16px" viewBox="0 0 16 16" version="1.1" xmlns="http://www.w3.org/2000/svg" xmlns:xlink="http://www.w3.org/1999/xlink">
    <title>Icons/00_MISC/Drop</title>
    <g id="Icons/00_MISC/Drop" stroke="none" stroke-width="1" fill="none" fill-rule="evenodd">
        <path d="M11.2087054,3 C11.7034995,3 12.1257423,3.17484944 12.4754464,3.52455357 C12.8251506,3.8742577 13,4.29557045 13,4.78850446 C13,5.28143848 12.8251506,5.70089113 12.4754464,6.046875 L11.2198661,7.29129464 L11.8002232,7.87165179 C11.8374258,7.90885435 11.8560268,7.95163666 11.8560268,8 C11.8560268,8.04836334 11.8374258,8.09114565 11.8002232,8.12834821 L10.6283482,9.30022321 C10.5911456,9.33742578 10.5483633,9.35602679 10.5,9.35602679 C10.4516367,9.35602679 10.4088544,9.33742578 10.3716518,9.30022321 L9.78571429,8.71428571 L6.42075893,12.0792411 C6.28310943,12.2168906 6.11570039,12.2857143 5.91852679,12.2857143 L4.78571429,12.2857143 L3.35714286,13 L3,12.6428571 L3.71428571,11.2142857 L3.71428571,10.0814732 C3.71428571,9.88429961 3.78310943,9.71689057 3.92075893,9.57924107 L7.28571429,6.21428571 L6.69977679,5.62834821 C6.66257422,5.59114565 6.64397321,5.54836334 6.64397321,5.5 C6.64397321,5.45163666 6.66257422,5.40885435 6.69977679,5.37165179 L7.87165179,4.19977679 C7.90885435,4.16257422 7.95163666,4.14397321 8,4.14397321 C8.04836334,4.14397321 8.09114565,4.16257422 8.12834821,4.19977679 L8.70870536,4.78013393 L9.953125,3.52455357 C10.2991089,3.17484944 10.7176315,3 11.2087054,3 Z M6,11 L9,8 L8,7 L5,10 L5,11 L6,11 Z" id="" fill="#FFFFFF" fill-rule="nonzero"></path>
    </g>
</svg>