<?xml version="1.0" encoding="UTF-8"?>
<svg width="16px" height="16px" viewBox="0 0 16 16" version="1.1" xmlns="http://www.w3.org/2000/svg" xmlns:xlink="http://www.w3.org/1999/xlink">
    <title>Icons/00_MISC/Ellipsis</title>
    <g id="Icons/00_MISC/Ellipsis" stroke="none" stroke-width="1" fill="none" fill-rule="evenodd">
        <path d="M3.86363636,10 C4.390625,10 4.81818182,9.55208333 4.81818182,9 L4.81818182,7 C4.81818182,6.44791667 4.390625,6 3.86363636,6 L1.95454545,6 C1.42755682,6 1,6.44791667 1,7 L1,9 C1,9.55208333 1.42755682,10 1.95454545,10 L3.86363636,10 Z M8.95454545,10 C9.48153409,10 9.90909091,9.55208333 9.90909091,9 L9.90909091,7 C9.90909091,6.44791667 9.48153409,6 8.95454545,6 L7.04545455,6 C6.51846591,6 6.09090909,6.44791667 6.09090909,7 L6.09090909,9 C6.09090909,9.55208333 6.51846591,10 7.04545455,10 L8.95454545,10 Z M14.0454545,10 C14.5724432,10 15,9.55208333 15,9 L15,7 C15,6.44791667 14.5724432,6 14.0454545,6 L12.1363636,6 C11.609375,6 11.1818182,6.44791667 11.1818182,7 L11.1818182,9 C11.1818182,9.55208333 11.609375,10 12.1363636,10 L14.0454545,10 Z" id="ï…" fill="#FFFFFF" fill-rule="nonzero"></path>
    </g>
</svg>