<?xml version="1.0" encoding="UTF-8"?>
<svg width="16px" height="16px" viewBox="0 0 16 16" version="1.1" xmlns="http://www.w3.org/2000/svg" xmlns:xlink="http://www.w3.org/1999/xlink">
    <title>Icons/00_MISC/Error</title>
    <g id="Icons/00_MISC/Error" stroke="none" stroke-width="1" fill="none" fill-rule="evenodd">
        <path d="M8,13.88 C9.04865385,13.88 10.0191186,13.6178365 10.9113942,13.0935096 C11.7760737,12.5967788 12.4567788,11.9160737 12.9535096,11.0513942 C13.4778365,10.1591186 13.74,9.18865385 13.74,8.14 C13.74,7.09134615 13.4778365,6.12088141 12.9535096,5.22860577 C12.4567788,4.36392628 11.7760737,3.68322115 10.9113942,3.18649038 C10.0191186,2.66216346 9.04865385,2.4 8,2.4 C6.96054487,2.4 5.99467949,2.66216346 5.10240385,3.18649038 C4.23772436,3.69241987 3.55241987,4.37772436 3.04649038,5.24240385 C2.52216346,6.13467949 2.26,7.10054487 2.26,8.14 C2.26,9.17945513 2.52216346,10.1453205 3.04649038,11.0375962 C3.54322115,11.9022756 4.22392628,12.5875801 5.08860577,13.0935096 C5.98088141,13.6178365 6.95134615,13.88 8,13.88 Z M8,12.7485577 C7.17211538,12.7485577 6.39942308,12.5369872 5.68192308,12.1138462 C4.98282051,11.7091026 4.43089744,11.1571795 4.02615385,10.4580769 C3.60301282,9.74057692 3.39144231,8.96788462 3.39144231,8.14 C3.39144231,7.31211538 3.60301282,6.53942308 4.02615385,5.82192308 C4.43089744,5.12282051 4.98282051,4.57089744 5.68192308,4.16615385 C6.39942308,3.74301282 7.17211538,3.53144231 8,3.53144231 C8.82788462,3.53144231 9.60057692,3.74301282 10.3180769,4.16615385 C11.0171795,4.57089744 11.5691026,5.12282051 11.9738462,5.82192308 C12.3969872,6.53942308 12.6085577,7.31211538 12.6085577,8.14 C12.6085577,8.96788462 12.3969872,9.74057692 11.9738462,10.4580769 C11.5691026,11.1571795 11.0171795,11.7091026 10.3180769,12.1138462 C9.60057692,12.5369872 8.82788462,12.7485577 8,12.7485577 Z M8.56572115,8.70572115 L8.56572115,5.25620192 L7.43427885,5.25620192 L7.43427885,8.70572115 L8.56572115,8.70572115 Z M8.56572115,11.0237981 L8.56572115,9.86475962 L7.43427885,9.86475962 L7.43427885,11.0237981 L8.56572115,11.0237981 Z" id="" fill="#FFFFFF" fill-rule="nonzero"></path>
    </g>
</svg>