<?xml version="1.0" encoding="UTF-8"?>
<svg width="16px" height="16px" viewBox="0 0 16 16" version="1.1" xmlns="http://www.w3.org/2000/svg" xmlns:xlink="http://www.w3.org/1999/xlink">
    <title>Icons/00_MISC/Expandible</title>
    <g id="Icons/00_MISC/Expandible" stroke="none" stroke-width="1" fill="none" fill-rule="evenodd">
        <path d="M3.4,4.75097784 C3.28888833,4.75097784 3.19444483,4.71447233 3.11666667,4.64146023 C3.0388885,4.56844814 3,4.47979192 3,4.37548892 C3,4.27118592 3.0388885,4.1825297 3.11666667,4.1095176 C3.19444483,4.0365055 3.28888833,4 3.4,4 L12.6,4 C12.7111117,4 12.8055552,4.0365055 12.8833333,4.1095176 C12.9611115,4.1825297 13,4.27118592 13,4.37548892 C13,4.47979192 12.9611115,4.56844814 12.8833333,4.64146023 C12.8055552,4.71447233 12.7111117,4.75097784 12.6,4.75097784 L3.4,4.75097784 Z M12.5777778,7.65605017 C12.6888894,7.65605017 12.7833329,7.69255567 12.8611111,7.76556777 C12.9388893,7.83857987 12.9777778,7.92723609 12.9777778,8.03153909 C12.9777778,8.13584209 12.9388893,8.2244983 12.8611111,8.2975104 C12.7833329,8.3705225 12.6888894,8.407028 12.5777778,8.407028 L6.3,8.407028 C6.18888833,8.407028 6.09444483,8.3705225 6.01666667,8.2975104 C5.9388885,8.2244983 5.9,8.13584209 5.9,8.03153909 C5.9,7.92723609 5.9388885,7.83857987 6.01666667,7.76556777 C6.09444483,7.69255567 6.18888833,7.65605017 6.3,7.65605017 L12.5777778,7.65605017 Z M12.6,11.2490222 C12.7111117,11.2490222 12.8055552,11.2855277 12.8833333,11.3585398 C12.9611115,11.4315519 13,11.5202081 13,11.6245111 C13,11.7288141 12.9611115,11.8174703 12.8833333,11.8904824 C12.8055552,11.9634945 12.7111117,12 12.6,12 L3.43333333,12 C3.32222167,12 3.22777817,11.9634945 3.15,11.8904824 C3.07222183,11.8174703 3.03333333,11.7288141 3.03333333,11.6245111 C3.03333333,11.5202081 3.07222183,11.4315519 3.15,11.3585398 C3.22777817,11.2855277 3.32222167,11.2490222 3.43333333,11.2490222 L12.6,11.2490222 Z M4.48888889,9.41876203 L3.13333333,8.16713231 C3.05185144,8.09064344 3.01111111,8.00024887 3.01111111,7.89594587 C3.01111111,7.79164287 3.05555511,7.70124829 3.14444444,7.62475943 L4.48888889,6.43571119 C4.56296333,6.36617585 4.655555,6.33314707 4.76666667,6.33662383 C4.87777833,6.3401006 4.97222183,6.37834446 5.05,6.45135656 C5.12777817,6.52436866 5.16481483,6.61302488 5.16111111,6.71732787 C5.15740739,6.82163087 5.11481522,6.91202545 5.03333333,6.98851432 L3.98888889,7.90637611 L5.05555556,8.8868194 C5.12963,8.95635473 5.16666667,9.04327259 5.16666667,9.14757559 C5.16666667,9.25187859 5.12963,9.33879645 5.05555556,9.40833179 C4.97407367,9.48482065 4.87777833,9.52306451 4.76666667,9.52306451 C4.66296244,9.52306451 4.57037078,9.48829737 4.48888889,9.41876203 Z" id="" fill="#FFFFFF" fill-rule="nonzero" transform="translate(8.000000, 8.000000) scale(-1, 1) translate(-8.000000, -8.000000) "></path>
    </g>
</svg>