<?xml version="1.0" encoding="utf-8"?>
<!-- Generator: Adobe Illustrator 25.4.1, SVG Export Plug-In . SVG Version: 6.00 Build 0)  -->
<svg version="1.1" id="Icons_x2F_00_x5F_MISC_x2F_Export"
	 xmlns="http://www.w3.org/2000/svg" xmlns:xlink="http://www.w3.org/1999/xlink" x="0px" y="0px" viewBox="0 0 16 16"
	 style="enable-background:new 0 0 16 16;" xml:space="preserve">
<style type="text/css">
	.st0{fill:#FFFFFF;}
</style>
<g id="Icons_x2F_00_x5F_MISC_x2F_Export_00000064341678956962787370000004318789024822896280_">
	<path id="Icons_x2F_00_x5F_MISC_x2F_Export_00000018919252607995979120000010774803207871154092_" class="st0" d="M13.6,11.7h-0.8
		c-0.1,0-0.1,0.1-0.1,0.1v1H2.8V2.9h9.8v1C12.6,4,12.7,4,12.8,4h0.8c0.1,0,0.1-0.1,0.1-0.1V2.3c0-0.3-0.2-0.5-0.5-0.5h-11
		c-0.3,0-0.5,0.2-0.5,0.5v11c0,0.3,0.2,0.5,0.5,0.5h11c0.3,0,0.5-0.2,0.5-0.5v-1.6C13.7,11.7,13.7,11.7,13.6,11.7L13.6,11.7z
		 M13.9,7.7L11.7,6c-0.1-0.1-0.2,0-0.2,0.1v1.2H6.6c-0.1,0-0.1,0.1-0.1,0.1v0.9c0,0.1,0.1,0.1,0.1,0.1h4.9v1.2
		c0,0.1,0.1,0.2,0.2,0.1l2.2-1.8C13.9,7.9,14,7.8,13.9,7.7C13.9,7.8,13.9,7.8,13.9,7.7L13.9,7.7z"/>
</g>
</svg>
