<?xml version="1.0" encoding="UTF-8"?>
<svg width="16px" height="16px" viewBox="0 0 16 16" version="1.1" xmlns="http://www.w3.org/2000/svg" xmlns:xlink="http://www.w3.org/1999/xlink">
    <title>Icons/00_MISC/FaceId</title>
    <defs>
        <polygon id="path-1" points="0 0 5.33331429 0 5.33331429 5.33333333 0 5.33333333"></polygon>
        <polygon id="path-3" points="-1.35341473e-15 0 5.33325714 0 5.33325714 5.33333333 -1.35341473e-15 5.33333333"></polygon>
    </defs>
    <g fill="currentColor">
        <path d="M0.772780952,5.33333333 C1.19887619,5.33333333 1.54554286,4.98666667 1.54554286,4.56057143 L1.54554286,2.86247619 C1.54554286,2.11161905 2.11182857,1.54552381 2.86268571,1.54552381 L4.56059048,1.54552381 C4.98668571,1.54552381 5.33335238,1.19885714 5.33335238,0.772761905 C5.33335238,0.346666667 4.98668571,0 4.56059048,0 L2.86268571,0 C1.25735238,0 1.9047619e-05,1.25733333 1.9047619e-05,2.86247619 L1.9047619e-05,4.56057143 C1.9047619e-05,4.98666667 0.346685714,5.33333333 0.772780952,5.33333333" id="Fill-1" fill="#D9D9D9"></path>
            <path d="M13.1374667,0 L11.4395619,0 C11.0134667,0 10.6666095,0.346666667 10.6666095,0.772761905 C10.6666095,1.19885714 11.0134667,1.54552381 11.4395619,1.54552381 L13.1374667,1.54552381 C13.8881333,1.54552381 14.454419,2.11161905 14.454419,2.86247619 L14.454419,4.56057143 C14.454419,4.98666667 14.8008952,5.33333333 15.227181,5.33333333 C15.6532762,5.33333333 15.9999429,4.98666667 15.9999429,4.56057143 L15.9999429,2.86247619 C15.9999429,1.25733333 14.7426095,0 13.1374667,0" id="Fill-3" fill="#D9D9D9"></path>
            <g id="Group-7" transform="translate(0.000000, 10.666610)">
                <mask id="mask-2" fill="white">
                    <use xlink:href="#path-1"></use>
                </mask>
                <g id="Clip-6"></g>
                <path d="M4.56055238,3.78780952 L2.86264762,3.78780952 C2.11179048,3.78780952 1.54550476,3.22152381 1.54550476,2.47085714 L1.54550476,0.772761905 C1.54550476,0.346666667 1.19902857,0 0.772742857,0 C0.346647619,0 -1.9047619e-05,0.346666667 -1.9047619e-05,0.772761905 L-1.9047619e-05,2.47085714 C-1.9047619e-05,4.076 1.25750476,5.33333333 2.86264762,5.33333333 L4.56055238,5.33333333 C4.98664762,5.33333333 5.33331429,4.98666667 5.33331429,4.56057143 C5.33331429,4.13428571 4.98664762,3.78780952 4.56055238,3.78780952" id="Fill-5" fill="#D9D9D9" mask="url(#mask-2)"></path>
            </g>
            <g id="Group-10" transform="translate(10.666743, 10.666667)">
                <mask id="mask-4" fill="white">
                    <use xlink:href="#path-3"></use>
                </mask>
                <g id="Clip-9"></g>
                <path d="M4.56038095,0 C4.13428571,0 3.78761905,0.34647619 3.78761905,0.772761905 L3.78761905,2.47085714 C3.78761905,3.22152381 3.22152381,3.78780952 2.47066667,3.78780952 L0.772761905,3.78780952 C0.346666667,3.78780952 -1.35341473e-15,4.13428571 -1.35341473e-15,4.56038095 C-1.35341473e-15,4.98666667 0.346666667,5.33333333 0.772761905,5.33333333 L2.47066667,5.33333333 C4.07580952,5.33333333 5.33333333,4.07580952 5.33333333,2.47085714 L5.33333333,0.772761905 C5.33333333,0.34647619 4.98647619,0 4.56038095,0" id="Fill-8" fill="#D9D9D9" mask="url(#mask-4)"></path>
            </g>
            <path d="M4.14369524,6.13579048 L4.14369524,7.22474286 C4.14369524,7.65998095 4.48540952,8.01388571 4.9056,8.01388571 C5.32579048,8.01388571 5.66750476,7.65998095 5.66750476,7.22474286 L5.66750476,6.13579048 C5.66750476,5.70055238 5.32579048,5.34664762 4.9056,5.34664762 C4.48540952,5.34664762 4.14369524,5.70055238 4.14369524,6.13579048" id="Fill-11" fill="#D9D9D9"></path>
            <path d="M11.1880571,8.01394286 C11.6082476,8.01394286 11.9499619,7.6600381 11.9499619,7.2248 L11.9499619,6.13584762 C11.9499619,5.70060952 11.6082476,5.34670476 11.1880571,5.34670476 C10.7678667,5.34670476 10.4261524,5.70060952 10.4261524,6.13584762 L10.4261524,7.2248 C10.4261524,7.6600381 10.7678667,8.01394286 11.1880571,8.01394286" id="Fill-13" fill="#D9D9D9"></path>
            <path d="M10.9776762,10.8082286 C10.8352,10.6552762 10.6416762,10.5672762 10.4329143,10.5600381 C10.2266286,10.5575619 10.0249143,10.6276571 9.87253333,10.7701333 C9.34948571,11.2581333 8.73691429,11.4952762 7.9999619,11.4952762 C7.26300952,11.4952762 6.6504381,11.2581333 6.12777143,10.7703238 C5.97500952,10.6274667 5.77615238,10.557181 5.56700952,10.5600381 C5.35824762,10.5672762 5.16472381,10.6554667 5.0224381,10.8080381 C4.72815238,11.1230857 4.74529524,11.6188952 5.06034286,11.9133714 L5.06053333,11.9133714 C5.8752,12.6737524 6.86415238,13.0592762 7.9999619,13.0592762 C9.13577143,13.0592762 10.1247238,12.6737524 10.9397714,11.913181 C11.2546286,11.6188952 11.2717714,11.1230857 10.9776762,10.8082286" id="Fill-15" fill="#D9D9D9"></path>
            <path d="M7.46531429,10.385981 L7.7316,10.385981 C8.55921905,10.385981 9.18302857,9.76255238 9.18302857,8.93569524 L9.18302857,6.12864762 C9.18302857,5.69740952 8.83217143,5.34655238 8.40112381,5.34655238 C7.96988571,5.34655238 7.61902857,5.69740952 7.61902857,6.12864762 L7.61864762,8.82198095 L7.46531429,8.82198095 C7.03407619,8.82198095 6.68340952,9.1728381 6.68340952,9.60407619 C6.68340952,10.0351238 7.03407619,10.385981 7.46531429,10.385981" id="Fill-17" fill="#D9D9D9"></path>
    </g>
</svg>