<?xml version="1.0" encoding="UTF-8"?>
<svg width="16px" height="16px" viewBox="0 0 16 16" version="1.1" xmlns="http://www.w3.org/2000/svg" xmlns:xlink="http://www.w3.org/1999/xlink">
    <title>Icons/00_MISC/Filter</title>
    <g id="Icons/00_MISC/Filter" stroke="none" stroke-width="1" fill="none" fill-rule="evenodd">
        <path d="M13.94876,2.33238636 C14.0452115,2.56534207 14.0054967,2.76420372 13.8296145,2.92897727 L9.63399415,7.13068182 L9.63399415,13.4545455 C9.63399415,13.6931818 9.52336024,13.860795 9.30208909,13.9573864 C9.22833204,13.9857956 9.15741286,14 9.08932943,14 C8.93614172,14 8.8084872,13.9460233 8.70636205,13.8380682 L6.52770319,11.65625 C6.41990442,11.5482949 6.36600585,11.4204553 6.36600585,11.2727273 L6.36600585,7.13068182 L2.17038545,2.92897727 C1.99450326,2.76420372 1.95478852,2.56534207 2.05124004,2.33238636 C2.14769157,2.11079435 2.31506083,2 2.55335283,2 L13.4466472,2 C13.6849392,2 13.8523084,2.11079435 13.94876,2.33238636 Z" id="" fill="#FFFFFF"></path>
    </g>
</svg>