<?xml version="1.0" encoding="UTF-8"?>
<svg width="16px" height="16px" viewBox="0 0 16 16" version="1.1" xmlns="http://www.w3.org/2000/svg" xmlns:xlink="http://www.w3.org/1999/xlink">
    <title>Icons/00_MISC/FullScreen</title>
    <g id="Icons/00_MISC/FullScreen" stroke="none" stroke-width="1" fill="none" fill-rule="evenodd">
        <path d="M9.25,7.8984375 C9.3125,7.8984375 9.3828125,7.8671875 9.4296875,7.8203125 L12.0234375,5.2265625 L13.1484375,6.3515625 C13.2421875,6.4453125 13.3671875,6.5 13.5,6.5 C13.7734375,6.5 14,6.2734375 14,6 L14,2.5 C14,2.2265625 13.7734375,2 13.5,2 L10,2 C9.7265625,2 9.5,2.2265625 9.5,2.5 C9.5,2.6328125 9.5546875,2.7578125 9.6484375,2.8515625 L10.7734375,3.9765625 L8.1796875,6.5703125 C8.1328125,6.6171875 8.1015625,6.6875 8.1015625,6.75 C8.1015625,6.8125 8.1328125,6.8828125 8.1796875,6.9296875 L9.0703125,7.8203125 C9.1171875,7.8671875 9.1875,7.8984375 9.25,7.8984375 Z M6,14 C6.2734375,14 6.5,13.7734375 6.5,13.5 C6.5,13.3671875 6.4453125,13.2421875 6.3515625,13.1484375 L5.2265625,12.0234375 L7.8203125,9.4296875 C7.8671875,9.3828125 7.8984375,9.3125 7.8984375,9.25 C7.8984375,9.1875 7.8671875,9.1171875 7.8203125,9.0703125 L6.9296875,8.1796875 C6.8828125,8.1328125 6.8125,8.1015625 6.75,8.1015625 C6.6875,8.1015625 6.6171875,8.1328125 6.5703125,8.1796875 L3.9765625,10.7734375 L2.8515625,9.6484375 C2.7578125,9.5546875 2.6328125,9.5 2.5,9.5 C2.2265625,9.5 2,9.7265625 2,10 L2,13.5 C2,13.7734375 2.2265625,14 2.5,14 L6,14 Z" id="ï¥" fill="#FFFFFF" fill-rule="nonzero"></path>
    </g>
</svg>