<?xml version="1.0" encoding="UTF-8"?>
<svg width="16px" height="16px" viewBox="0 0 16 16" version="1.1" xmlns="http://www.w3.org/2000/svg" xmlns:xlink="http://www.w3.org/1999/xlink">
    <title>Icons/00_MISC/Hide</title>
    <g id="Icons/00_MISC/Hide" stroke="none" stroke-width="1" fill="none" fill-rule="evenodd">
        <path d="M5.8660254,2.30384758 L6.89801522,4.08933112 C7.25774109,4.02977704 7.62506935,4 8,4 C8.89760349,4 9.75163399,4.17066667 10.5620915,4.512 C11.3464052,4.8448 12.037037,5.31413333 12.6339869,5.92 C13.2309368,6.52586667 13.6862745,7.22133333 14,8.0064 C13.6862745,8.79146667 13.2309368,9.4848 12.6339869,10.0864 C12.1613131,10.5627559 11.6299034,10.9548469 11.0397579,11.2626729 L11.8660254,12.6961524 C12.1421678,13.174445 11.9782926,13.7860355 11.5,14.0621778 C11.0217074,14.3383202 10.410117,14.174445 10.1339746,13.6961524 L9.10198478,11.9106689 C8.74225891,11.970223 8.37493065,12 8,12 C7.10239651,12 6.24836601,11.8293333 5.4379085,11.488 C4.65359477,11.1552 3.96296296,10.688 3.36601307,10.0864 C2.76906318,9.4848 2.31372549,8.79146667 2,8.0064 C2.31372549,7.22133333 2.76906318,6.52586667 3.36601307,5.92 C3.83868692,5.44026572 4.3700966,5.04613386 4.96024212,4.73760444 L4.1339746,3.30384758 C3.85783222,2.82555495 4.02170738,2.21396455 4.5,1.93782217 C4.97829262,1.6616798 5.58988303,1.82555495 5.8660254,2.30384758 Z M5.8746547,6.31979151 C5.78673368,6.42645604 5.70651109,6.54065887 5.63398693,6.6624 C5.38997821,7.072 5.26797386,7.52 5.26797386,8.0064 C5.26797386,8.4928 5.38997821,8.9408 5.63398693,9.3504 C5.87799564,9.76 6.20915033,10.0842667 6.62745098,10.3232 C7.04575163,10.5621333 7.50326797,10.6816 8,10.6816 C8.12883341,10.6816 8.25502883,10.6735636 8.37858627,10.6574909 L7.76092424,9.58910445 C7.56147667,9.5597365 7.37101609,9.49296835 7.18954248,9.3888 C6.93681917,9.24373333 6.73638344,9.04746667 6.58823529,8.8 C6.44008715,8.55253333 6.36601307,8.288 6.36601307,8.0064 C6.36601307,7.79274735 6.4086531,7.58891897 6.49393316,7.39491485 Z M8,5.3312 C7.87357791,5.3312 7.74969598,5.33893835 7.62835422,5.35441505 L8.24710235,6.42489837 C8.44363474,6.45486267 8.6314198,6.52122988 8.81045752,6.624 C9.06318083,6.76906667 9.26361656,6.96533333 9.41176471,7.2128 C9.55991285,7.46026667 9.63398693,7.7248 9.63398693,8.0064 C9.63398693,8.21741714 9.59239238,8.4188509 9.50920328,8.61070128 L10.1296331,9.68779314 C10.2158763,9.58262362 10.2946696,9.47015924 10.3660131,9.3504 C10.6100218,8.9408 10.7320261,8.4928 10.7320261,8.0064 C10.7320261,7.52 10.6100218,7.072 10.3660131,6.6624 C10.1220044,6.2528 9.79084967,5.92853333 9.37254902,5.6896 C8.95424837,5.45066667 8.49673203,5.3312 8,5.3312 Z" id="Combined-Shape" fill="#FFFFFF" fill-rule="nonzero"></path>
    </g>
</svg>