<?xml version="1.0" encoding="utf-8"?>
<!-- Generator: Adobe Illustrator 25.4.1, SVG Export Plug-In . SVG Version: 6.00 Build 0)  -->
<svg version="1.1" id="Icons_x2F_00_x5F_MISC_x2F_Import"
	 xmlns="http://www.w3.org/2000/svg" xmlns:xlink="http://www.w3.org/1999/xlink" x="0px" y="0px" viewBox="0 0 16 16"
	 style="enable-background:new 0 0 16 16;" xml:space="preserve">
<style type="text/css">
	.st0{fill:#FFFFFF;}
</style>
<path class="st0" d="M13.9,11.8h-0.8C13,11.8,13,11.9,13,12v1H3.1V3.1H13v1c0,0.1,0.1,0.1,0.1,0.1h0.8C14,4.2,14,4.1,14,4V2.5
	C14,2.2,13.8,2,13.6,2h-11C2.3,2,2,2.2,2,2.5v11C2,13.8,2.3,14,2.5,14h11c0.3,0,0.5-0.2,0.5-0.5V12C14,11.9,14,11.8,13.9,11.8
	L13.9,11.8z M14.1,7.4H9.2V6.2c0-0.1-0.1-0.2-0.2-0.1L6.8,7.9c-0.1,0-0.1,0.1,0,0.2c0,0,0,0,0,0L9,9.8c0.1,0.1,0.2,0,0.2-0.1V8.6
	h4.9c0.1,0,0.1-0.1,0.1-0.1V7.6C14.3,7.5,14.2,7.4,14.1,7.4z"/>
</svg>
