<?xml version="1.0" encoding="UTF-8"?>
<svg width="16px" height="16px" viewBox="0 0 16 16" version="1.1" xmlns="http://www.w3.org/2000/svg" xmlns:xlink="http://www.w3.org/1999/xlink">
    <title>Icons/00_MISC/Info</title>
    <g id="Icons/00_MISC/Info" stroke="none" stroke-width="1" fill="none" fill-rule="evenodd">
        <path d="M9.10000447,4.67857462 C9.39297357,4.67857462 9.63571939,4.4358288 9.63571939,4.1428597 L9.63571939,2.53571492 C9.63571939,2.24274583 9.39297357,2 9.10000447,2 L6.95714477,2 C6.66417567,2 6.42142985,2.24274583 6.42142985,2.53571492 L6.42142985,4.1428597 C6.42142985,4.4358288 6.66417567,4.67857462 6.95714477,4.67857462 L9.10000447,4.67857462 Z M10.1714343,13.7857194 C10.4644034,13.7857194 10.7071492,13.5429825 10.7071492,13.2500134 L10.7071492,12.1785836 C10.7071492,11.8856145 10.4644034,11.6428686 10.1714343,11.6428686 L9.63571939,11.6428686 L9.63571939,6.82143432 C9.63571939,6.52846522 9.39297357,6.28571939 9.10000447,6.28571939 L5.88571492,6.28571939 C5.59274583,6.28571939 5.35,6.52846522 5.35,6.82143432 L5.35,7.89286417 C5.35,8.18583327 5.59274583,8.42857909 5.88571492,8.42857909 L6.42142985,8.42857909 L6.42142985,11.6428686 L5.88571492,11.6428686 C5.59274583,11.6428686 5.35,11.8856145 5.35,12.1785836 L5.35,13.2500134 C5.35,13.5429825 5.59274583,13.7857194 5.88571492,13.7857194 L10.1714343,13.7857194 Z" id="" fill="#FFFFFF" fill-rule="nonzero"></path>
    </g>
</svg>