<?xml version="1.0" encoding="UTF-8"?>
<svg width="16px" height="16px" viewBox="0 0 16 16" version="1.1" xmlns="http://www.w3.org/2000/svg" xmlns:xlink="http://www.w3.org/1999/xlink">
    <g id="Icons/00_MISC/ItemDetail" stroke="none" stroke-width="1" fill="none" fill-rule="evenodd">
        <path d="M5.56662704,3.55958814 C6.99230769,2.14670883 9.29972568,2.14689908 10.7252417,3.55958814 C11.8193554,4.64387822 12.071535,6.2511932 11.4821922,7.57680204 L11.4821922,7.57680204 L14.6230952,10.6894851 C15.1255892,11.1874785 15.1256441,11.9977812 14.6232049,12.4958018 C14.1193942,12.9952356 13.3038221,12.9951813 12.8000114,12.4959105 L12.8000114,12.4959105 L9.67515602,9.39915407 C8.3529752,10.0047475 6.69675849,9.79150429 5.56662704,8.67155588 C4.14445765,7.26218262 4.14445765,4.96896141 5.56662704,3.55958814 Z M10.2215026,11.574074 C10.4443408,11.574074 10.625,11.767539 10.625,12.0061728 C10.625,12.2448065 10.4443408,12.4382715 10.2215026,12.4382715 L10.2215026,12.4382715 L1.4034974,12.4382715 C1.18065923,12.4382715 1,12.2448065 1,12.0061728 C1,11.767539 1.18065923,11.574074 1.4034974,11.574074 L1.4034974,11.574074 Z M11.0504995,8.30222594 C10.8605898,8.54960552 10.6418768,8.76937165 10.3964727,8.96076332 L10.3964727,8.96076332 L13.3819751,11.9194253 C13.5641765,12.100027 13.8590125,12.0999455 14.041159,11.9193981 C14.2229215,11.7392312 14.222894,11.44611 14.0411041,11.2659431 L14.0411041,11.2659431 Z M5.41567133,9.845679 C5.63482658,9.845679 5.8125,10.039144 5.8125,10.2777778 C5.8125,10.5164115 5.63482658,10.7098765 5.41567133,10.7098765 L5.41567133,10.7098765 L1.39682867,10.7098765 C1.17767342,10.7098765 1,10.5164115 1,10.2777778 C1,10.039144 1.17767342,9.845679 1.39682867,9.845679 L1.39682867,9.845679 Z M3.67302752,8.117284 C3.88812019,8.117284 4.0625,8.31074902 4.0625,8.54938277 C4.0625,8.78801651 3.88812019,8.98148153 3.67302752,8.98148153 L3.67302752,8.98148153 L1.38947248,8.98148153 C1.17437981,8.98148153 1,8.78801651 1,8.54938277 C1,8.31074902 1.17437981,8.117284 1.38947248,8.117284 L1.38947248,8.117284 Z M10.1432507,4.13607334 C9.03920677,3.0419446 7.25244256,3.04213485 6.1485907,4.13607334 C5.04718025,5.22759293 5.04718025,7.00357828 6.1485907,8.09507069 C7.25260715,9.18919942 9.03937136,9.18903635 10.1432507,8.09507069 C11.2446611,7.00357828 11.2446611,5.22759293 10.1432507,4.13607334 Z M3.20594762,6.388889 C3.43737628,6.388889 3.625,6.58235402 3.625,6.82098777 C3.625,7.05962151 3.43737628,7.25308653 3.20594762,7.25308653 L3.20594762,7.25308653 L1.41905238,7.25308653 C1.18762372,7.25308653 1,7.05962151 1,6.82098777 C1,6.58235402 1.18762372,6.388889 1.41905238,6.388889 L1.41905238,6.388889 Z" id="Combined-Shape" fill="#FFFFFF" fill-rule="nonzero"></path>
    </g>
</svg>