<?xml version="1.0" encoding="UTF-8"?>
<svg width="16px" height="16px" viewBox="0 0 16 16" version="1.1" xmlns="http://www.w3.org/2000/svg" xmlns:xlink="http://www.w3.org/1999/xlink">
    <title>Icons/00_MISC/Layer</title>
    <g id="Icons/00_MISC/Layer" stroke="none" stroke-width="1" fill="none" fill-rule="evenodd">
        <path d="M11.9401374,9.40399814 L12.8233562,9.83867968 C12.8756954,9.86502415 12.9182203,9.90454026 12.9509323,9.9572292 C12.9836443,10.0099181 13,10.0626063 13,10.1152952 C13,10.1745703 12.9852798,10.2305514 12.9558391,10.2832404 C12.9263983,10.3359293 12.8855089,10.3754454 12.8331698,10.4017899 L8.12266928,12.9604835 C8.09649971,12.9736557 8.07196609,12.9835348 8.04906771,12.9901209 C8.02616933,12.996707 8.00163572,13 7.97546614,13 C7.94929657,13 7.92312738,12.996707 7.8969578,12.9901209 C7.87078822,12.9835348 7.84461904,12.9736557 7.81844946,12.9604835 L3.15701668,10.4017899 C3.11121992,10.3754454 3.07360172,10.3359293 3.04416094,10.2832404 C3.01472017,10.2305514 3,10.1745703 3,10.1152952 C3,10.0560202 3.01472017,10.0016855 3.04416094,9.95228963 C3.07360172,9.90289376 3.11449107,9.86502415 3.16683023,9.83867968 L4.09911678,9.41387727 L4.76643768,9.77940493 L3.99116781,10.1350535 L7.97546614,12.3183403 L12.0088322,10.1350535 L11.2728165,9.7695258 L11.9401374,9.40399814 Z M4.15799804,7.13179916 L4.82531894,7.49732682 L3.99116781,7.92212924 L7.97546614,10.1054161 L12.0088322,7.92212924 L11.2237488,7.51708508 L11.8910697,7.15155742 L12.8233562,7.62575546 C12.8756954,7.65209993 12.9182203,7.69161604 12.9509323,7.74430497 C12.9836443,7.79699391 13,7.84968205 13,7.90237099 C13,7.96164604 12.9852798,8.0176272 12.9558391,8.07031613 C12.9263983,8.12300507 12.8855089,8.16252118 12.8331698,8.18886564 L8.12266928,10.7475593 C8.09649971,10.7607315 8.07196609,10.7706105 8.04906771,10.7771967 C8.02616933,10.7837828 8.00163572,10.7870758 7.97546614,10.7870758 C7.94929657,10.7870758 7.92312738,10.7837828 7.8969578,10.7771967 C7.87078822,10.7706105 7.84461904,10.7607315 7.81844946,10.7475593 L3.15701668,8.18886564 C3.11121992,8.16252118 3.07360172,8.12300507 3.04416094,8.07031613 C3.01472017,8.0176272 3,7.96164604 3,7.90237099 C3,7.84309594 3.01472017,7.78876129 3.04416094,7.73936541 C3.07360172,7.68996953 3.11449107,7.65209993 3.16683023,7.62575546 L4.15799804,7.13179916 Z M8.02944063,3 C8.07850859,3 8.12594024,3.01313357 8.171737,3.0394011 L12.8331698,5.41331757 C12.8855089,5.43958511 12.9263983,5.47734412 12.9558391,5.52659574 C12.9852798,5.57584737 13,5.63002335 13,5.6891253 C13,5.74822725 12.9852798,5.80404492 12.9558391,5.85657998 C12.9263983,5.90911505 12.8887801,5.94851576 12.8429833,5.97478329 L8.12266928,8.52600473 C8.1030421,8.53913849 8.08014406,8.54734698 8.05397448,8.55063042 C8.02780491,8.55391386 8.00163572,8.55555556 7.97546614,8.55555556 C7.94929657,8.55555556 7.92476295,8.55227216 7.90186457,8.54570528 C7.87896619,8.5391384 7.85443258,8.53257161 7.828263,8.52600473 L3.16683023,5.97478329 C3.11449107,5.94851576 3.07360172,5.90911505 3.04416094,5.85657998 C3.01472017,5.80404492 3,5.74822725 3,5.6891253 C3,5.63002335 3.01635574,5.57584737 3.04906771,5.52659574 C3.08177969,5.47734412 3.12430461,5.43958511 3.17664377,5.41331757 L7.88714426,3.0394011 C7.93294102,3.01313357 7.98037267,3 8.02944063,3 Z" id="Combined-Shape" fill="#FFFFFF" fill-rule="nonzero"></path>
    </g>
</svg>