<?xml version="1.0" encoding="UTF-8"?>
<svg width="16px" height="16px" viewBox="0 0 16 16" version="1.1" xmlns="http://www.w3.org/2000/svg" xmlns:xlink="http://www.w3.org/1999/xlink">
    <title>Icons/00_MISC/LockOpen</title>
    <g id="Icons/00_MISC/LockOpen" stroke="none" stroke-width="1" fill="none" fill-rule="evenodd">
        <path d="M11.0146628,5.84821429 C11.2805474,5.84821429 11.5112414,5.94122024 11.7067449,6.12723214 C11.9022483,6.31324405 12,6.5327381 12,6.78571429 L12,11.5625 C12,11.8154762 11.9022483,12.0349702 11.7067449,12.2209821 C11.5112414,12.406994 11.2805474,12.5 11.0146628,12.5 L5.00879765,12.5 C4.72727273,12.5 4.48875855,12.406994 4.29325513,12.2209821 C4.09775171,12.0349702 4,11.8154762 4,11.5625 L4,6.78571429 C4,6.5327381 4.09775171,6.31324405 4.29325513,6.12723214 C4.48875855,5.94122024 4.72727273,5.84821429 5.00879765,5.84821429 L5.50146628,5.84821429 L5.50146628,4.88839286 C5.50146628,4.23363095 5.74780059,3.671875 6.24046921,3.203125 C6.73313783,2.734375 7.32355816,2.5 8.01173021,2.5 C8.69990225,2.5 9.28641251,2.734375 9.771261,3.203125 C10.2561095,3.671875 10.4985337,4.23363095 10.4985337,4.88839286 L10.4985337,5.84821429 L11.0146628,5.84821429 Z M8,10.1339286 C8.27370479,10.1339286 8.5083089,10.0409226 8.70381232,9.85491071 C8.89931574,9.66889881 8.99706745,9.44196429 8.99706745,9.17410714 C8.99706745,8.90625 8.89931574,8.67931548 8.70381232,8.49330357 C8.5083089,8.30729167 8.27370479,8.21428571 8,8.21428571 C7.72629521,8.21428571 7.4916911,8.30729167 7.29618768,8.49330357 C7.10068426,8.67931548 7.00293255,8.90625 7.00293255,9.17410714 C7.00293255,9.44196429 7.10068426,9.66889881 7.29618768,9.85491071 C7.4916911,10.0409226 7.72629521,10.1339286 8,10.1339286 Z M9.5601173,5.84821429 L9.5601173,4.88839286 C9.5601173,4.48660714 9.40762463,4.140625 9.1026393,3.85044643 C8.79765396,3.56026786 8.43010753,3.41517857 8,3.41517857 C7.56989247,3.41517857 7.20625611,3.56026786 6.90909091,3.85044643 C6.61192571,4.140625 6.46334311,4.48660714 6.46334311,4.88839286 L6.46334311,5.84821429 L9.5601173,5.84821429 Z" id="Icon-Shape" fill="#FFFFFF" fill-rule="nonzero"></path>
    </g>
</svg>