<?xml version="1.0" encoding="UTF-8"?>
<svg width="16px" height="16px" viewBox="0 0 16 16" version="1.1" xmlns="http://www.w3.org/2000/svg" xmlns:xlink="http://www.w3.org/1999/xlink">
    <title>Icons/00_MISC/LockClose</title>
    <g id="Icons/00_MISC/LockClose" stroke="none" stroke-width="1" fill="none" fill-rule="evenodd">
        <path d="M5.38770684,2.5 C6.70572102,2.5 7.77541369,3.57680347 7.77541369,4.90357917 L7.775,5.859 L12.0702578,5.85940595 C12.3211406,5.85940595 12.5388184,5.95225542 12.723291,6.13795436 C12.9077637,6.3236533 13,6.54277805 13,6.7953286 L13,11.5640773 C13,11.8166279 12.9077637,12.0357527 12.723291,12.2214516 C12.5388184,12.4071505 12.3211406,12.5 12.0702578,12.5 L6.40325792,12.5 C6.1376173,12.5 5.91256066,12.4071505 5.72808801,12.2214516 C5.54361535,12.0357527 5.45137903,11.8166279 5.45137903,11.5640773 L5.45137903,6.7953286 C5.45137903,6.54277805 5.54361535,6.3236533 5.72808801,6.13795436 C5.91256066,5.95225542 6.1376173,5.85940595 6.40325792,5.85940595 L6.82,5.859 L6.82033095,4.90357917 C6.82033095,4.10559089 6.18042552,3.46143167 5.38770684,3.46143167 C4.59498817,3.46143167 3.95508274,4.10559089 3.95508274,4.90357917 L3.95508274,5.86501084 L3,5.86501084 L3,4.90357917 C3,3.57680347 4.06969267,2.5 5.38770684,2.5 Z M9.22568951,8.22149645 C8.9674278,8.22149645 8.74606061,8.31434592 8.56158796,8.50004486 C8.37711531,8.6857438 8.28487898,8.9122965 8.28487898,9.17970298 C8.28487898,9.44710945 8.37711531,9.67366215 8.56158796,9.85936109 C8.74606061,10.04506 8.9674278,10.1379095 9.22568951,10.1379095 C9.48395123,10.1379095 9.70531841,10.04506 9.88979107,9.85936109 C10.0742637,9.67366215 10.1665,9.44710945 10.1665,9.17970298 C10.1665,8.9122965 10.0742637,8.6857438 9.88979107,8.50004486 C9.70531841,8.31434592 9.48395123,8.22149645 9.22568951,8.22149645 Z" id="Combined-Shape" fill="#FFFFFF" fill-rule="nonzero"></path>
    </g>
</svg>