<?xml version="1.0" encoding="UTF-8"?>
<svg width="16px" height="16px" viewBox="0 0 16 16" version="1.1" xmlns="http://www.w3.org/2000/svg" xmlns:xlink="http://www.w3.org/1999/xlink">
    <title>Icons/00_MISC/MakeCenter</title>
    <g id="Icons/00_MISC/MakeCenter" stroke="none" stroke-width="1" fill="none" fill-rule="evenodd">
        <path d="M9.37634902,7.88597959 L10.0004592,6.74503061 C10.0004592,6.74503061 11.0006889,4.90915306 11.0006889,4.13365306 C11.0006889,2.36827551 9.65878301,1 8.00137773,1 C6.34397245,1 5.00068886,2.36827551 5.00068886,4.13365306 C5.00068886,4.92066327 6.00091848,6.74503061 6.00091848,6.74503061 L6.6250287,7.88597959 C3.97290471,8.26437755 2,9.71466327 2,11.4440714 C2,13.4641122 4.68656716,15.1 8,15.1 C11.3134328,15.1 14,13.4641122 14,11.4440714 C14,9.71466327 12.0270953,8.26437755 9.37634902,7.88597959 Z M6.36363636,4.25384615 C6.36363636,3.35499363 7.09691961,2.62692308 8,2.62692308 C8.90308039,2.62692308 9.63636364,3.35499363 9.63636364,4.25384615 C9.63636364,5.15269868 8.90458302,5.88076923 8,5.88076923 C7.09541698,5.88076923 6.36363636,5.15269868 6.36363636,4.25384615 Z M12.9077327,11.5271655 C12.6958589,12.8395116 10.8351715,13.8858042 8.49233517,14.0153846 L8.49233517,12.5279672 L7.50630667,12.5279672 L7.50630667,14.0153846 C5.1621122,13.8858042 3.30278298,12.8395116 3.09090909,11.5271655 L4.54957935,11.5271655 L4.54957935,11.0267647 L3.09090909,11.0267647 C3.28512683,9.8288354 4.85380852,8.85146846 6.91142997,8.59230769 L8.00067908,10.5263638 L9.08857003,8.59230769 C11.1448333,8.85146846 12.7148732,9.8288354 12.9090909,11.0267647 L11.4504207,11.0267647 L11.4504207,11.5271655 L12.9077327,11.5271655 Z" id="Shape-Copy-4" fill="#FFFFFF" fill-rule="nonzero"></path>
    </g>
</svg>