<?xml version="1.0" encoding="UTF-8"?>
<svg width="16px" height="16px" viewBox="0 0 16 16" version="1.1" xmlns="http://www.w3.org/2000/svg" xmlns:xlink="http://www.w3.org/1999/xlink">
    <title>Icons/00_MISC/Manually</title>
    <g id="Icons/00_MISC/Manually" stroke="none" stroke-width="1" fill="none" fill-rule="evenodd">
        <path d="M12.508,12.5 C12.78,12.5 13.016,12.404 13.216,12.212 C13.416,12.02 13.516,11.788 13.516,11.516 L13.516,11.516 L13.516,4.508 C13.516,4.228 13.416,3.99 13.216,3.794 C13.016,3.598 12.78,3.5 12.508,3.5 L12.508,3.5 L3.508,3.5 C3.236,3.5 3,3.6 2.8,3.8 C2.6,4 2.5,4.236 2.5,4.508 L2.5,4.508 L2.5,6.5 L3.508,6.5 L3.508,4.484 L12.508,4.484 L12.508,11.516 L3.508,11.516 L3.508,9.5 L2.5,9.5 L2.5,11.516 C2.5,11.788 2.6,12.02 2.8,12.212 C3,12.404 3.236,12.5 3.508,12.5 L3.508,12.5 L12.508,12.5 Z M7.516,9.992 L9.508,8 L7.516,6.008 L7.516,7.508 L2.5,7.508 L2.5,8.492 L7.516,8.492 L7.516,9.992 Z" id="" fill="#FFFFFF" fill-rule="nonzero"></path>
    </g>
</svg>