<?xml version="1.0" encoding="UTF-8"?>
<svg width="16px" height="16px" viewBox="0 0 16 16" version="1.1" xmlns="http://www.w3.org/2000/svg" xmlns:xlink="http://www.w3.org/1999/xlink">
    <title>Icons/00_MISC/Notifications</title>
    <g id="Icons/00_MISC/Notifications" stroke="none" stroke-width="1" fill="none" fill-rule="evenodd">
        <path d="M8.00558036,9 C8.45758929,9 9.07142857,8.48660714 9.43415179,8.23549107 C10.2991071,7.62723214 11.1752232,7.02455357 12.0457589,6.421875 C12.5368304,6.08147321 13,5.51785714 13,4.89285714 C13,4.40178571 12.5926339,4 12.1071429,4 L3.89285714,4 C3.29575893,4 3,4.46875 3,5.015625 C3,5.5234375 3.56361607,6.15401786 3.95982143,6.421875 C4.82477679,7.02455357 5.70089286,7.62723214 6.56584821,8.23549107 C6.92857143,8.48660714 7.54241071,9 7.99441964,9 L8.00558036,9 Z M12.1071429,12 C12.5982143,12 13,11.6226415 13,11.1614256 L13,7 C12.8325893,7.17295597 12.6428571,7.32494759 12.4419643,7.45597484 C11.5100446,8.04821803 10.5725446,8.64570231 9.66294643,9.26415094 C9.19419643,9.58909853 8.61383929,9.98742138 8.00558036,9.98742138 L7.99441964,9.98742138 C7.38616071,9.98742138 6.80580357,9.58909853 6.33705357,9.26415094 C5.42745536,8.64046122 4.48995536,8.04821803 3.56361607,7.45597484 C3.35714286,7.32494759 3.16741071,7.17295597 3,7 L3,11.1614256 C3,11.6226415 3.40178571,12 3.89285714,12 L12.1071429,12 Z" id="" fill="#FFFFFF" fill-rule="nonzero"></path>
    </g>
</svg>