<?xml version="1.0" encoding="UTF-8"?>
<svg width="16px" height="16px" viewBox="0 0 16 16" version="1.1" xmlns="http://www.w3.org/2000/svg" xmlns:xlink="http://www.w3.org/1999/xlink">
    <title>Icons/00_MISC/Offline</title>
    <g id="Icons/00_MISC/Offline" stroke="none" stroke-width="1" fill="none" fill-rule="evenodd">
        <path d="M8,14 C9.0859375,14 10.0898438,13.7324219 11.0117188,13.1972656 C11.9335938,12.6621094 12.6621094,11.9335938 13.1972656,11.0117188 C13.7324219,10.0898438 14,9.0859375 14,8 C14,6.9140625 13.7324219,5.91015625 13.1972656,4.98828125 C12.6621094,4.06640625 11.9335938,3.33984375 11.0117188,2.80859375 C10.0898438,2.26953125 9.0859375,2 8,2 C6.9140625,2 5.91015625,2.26757812 4.98828125,2.80273438 C4.06640625,3.33789062 3.33789062,4.06640625 2.80273438,4.98828125 C2.26757812,5.91015625 2,6.9140625 2,8 C2,9.0859375 2.26757812,10.0898438 2.80273438,11.0117188 C3.33789062,11.9335938 4.06640625,12.6621094 4.98828125,13.1972656 C5.91015625,13.7324219 6.9140625,14 8,14 Z M8,13.15625 C7.296875,13.15625 6.62890625,13.0234375 5.99609375,12.7578125 C5.37890625,12.4921875 4.83203125,12.1210938 4.35546875,11.6445312 C3.87890625,11.1679688 3.51171875,10.6210938 3.25390625,10.0039062 C2.98046875,9.37109375 2.84375,8.703125 2.84375,8 C2.84375,7.296875 2.9765625,6.62890625 3.2421875,5.99609375 C3.5078125,5.37890625 3.87890625,4.83203125 4.35546875,4.35546875 C4.83203125,3.87890625 5.37890625,3.51171875 5.99609375,3.25390625 C6.62890625,2.98046875 7.296875,2.84375 8,2.84375 C8.703125,2.84375 9.37109375,2.9765625 10.0039062,3.2421875 C10.6210938,3.5078125 11.1679688,3.87890625 11.6445312,4.35546875 C12.1210938,4.83203125 12.4882812,5.37890625 12.7460938,5.99609375 C13.0195312,6.62890625 13.15625,7.296875 13.15625,8 C13.15625,8.703125 13.0234375,9.37109375 12.7578125,10.0039062 C12.4921875,10.6210938 12.1210938,11.1679688 11.6445312,11.6445312 C11.1679688,12.1210938 10.6210938,12.4882812 10.0039062,12.7460938 C9.37109375,13.0195312 8.703125,13.15625 8,13.15625 Z M10.109375,10.53125 C10.2265625,10.53125 10.3261719,10.4902344 10.4082031,10.4082031 C10.4902344,10.3261719 10.53125,10.2285156 10.53125,10.1152344 C10.53125,10.0019531 10.4882812,9.90234375 10.4023438,9.81640625 L8.59765625,8 L10.4023438,6.18359375 C10.4882812,6.10546875 10.53125,6.0078125 10.53125,5.890625 C10.53125,5.7734375 10.4902344,5.67382812 10.4082031,5.59179688 C10.3261719,5.50976562 10.2265625,5.46875 10.109375,5.46875 C9.9921875,5.46875 9.890625,5.5078125 9.8046875,5.5859375 L8,7.40234375 L6.1953125,5.5859375 C6.109375,5.5078125 6.0078125,5.46875 5.890625,5.46875 C5.7734375,5.46875 5.67382812,5.50976562 5.59179688,5.59179688 C5.50976562,5.67382812 5.46875,5.7734375 5.46875,5.890625 C5.46875,6.0078125 5.51171875,6.10546875 5.59765625,6.18359375 L7.40234375,8 L5.59765625,9.81640625 C5.51171875,9.89453125 5.46875,9.9921875 5.46875,10.109375 C5.46875,10.2265625 5.50976562,10.3261719 5.59179688,10.4082031 C5.67382812,10.4902344 5.7734375,10.53125 5.890625,10.53125 C6.0078125,10.53125 6.109375,10.4921875 6.1953125,10.4140625 L8,8.59765625 L9.8046875,10.4140625 C9.890625,10.4921875 9.9921875,10.53125 10.109375,10.53125 Z" id="" fill="#FFFFFF" fill-rule="nonzero"></path>
    </g>
</svg>