<?xml version="1.0" encoding="UTF-8"?>
<svg width="16px" height="16px" viewBox="0 0 16 16" version="1.1" xmlns="http://www.w3.org/2000/svg" xmlns:xlink="http://www.w3.org/1999/xlink">
    <title>Icons/00_MISC/Offset</title>
    <g id="Icons/00_MISC/Offset" stroke="none" stroke-width="1" fill="none" fill-rule="evenodd">
        <path d="M6.49101796,5.01796407 C6.89820359,5.01796407 7.25149701,4.86826347 7.5508982,4.56886228 C7.8502994,4.26946108 8,3.91616766 8,3.50898204 C8,3.10179641 7.8502994,2.74850299 7.5508982,2.4491018 C7.25149701,2.1497006 6.89820359,2 6.49101796,2 C6.08383234,2 5.73652695,2.1497006 5.4491018,2.4491018 C5.16167665,2.74850299 5.01796407,3.10179641 5.01796407,3.50898204 C5.01796407,3.91616766 5.16167665,4.26946108 5.4491018,4.56886228 C5.73652695,4.86826347 6.08383234,5.01796407 6.49101796,5.01796407 Z M12.491018,5.01796407 C12.8982036,5.01796407 13.251497,4.86826347 13.5508982,4.56886228 C13.8502994,4.26946108 14,3.91616766 14,3.50898204 C14,3.10179641 13.8502994,2.74850299 13.5508982,2.4491018 C13.251497,2.1497006 12.8982036,2 12.491018,2 C12.0838323,2 11.7305389,2.1497006 11.4311377,2.4491018 C11.1317365,2.74850299 10.9820359,3.10179641 10.9820359,3.50898204 C10.9820359,3.91616766 11.1317365,4.26946108 11.4311377,4.56886228 C11.7305389,4.86826347 12.0838323,5.01796407 12.491018,5.01796407 Z M9.50898204,8 C9.91616766,8 10.2634731,7.8502994 10.5508982,7.5508982 C10.8383234,7.25149701 10.9820359,6.89820359 10.9820359,6.49101796 C10.9820359,6.08383234 10.8383234,5.73652695 10.5508982,5.4491018 C10.2634731,5.16167665 9.91616766,5.01796407 9.50898204,5.01796407 C9.10179641,5.01796407 8.74850299,5.16167665 8.4491018,5.4491018 C8.1497006,5.73652695 8,6.08383234 8,6.49101796 C8,6.89820359 8.1497006,7.25149701 8.4491018,7.5508982 C8.74850299,7.8502994 9.10179641,8 9.50898204,8 Z M3.50898204,8 C3.91616766,8 4.26946108,7.8502994 4.56886228,7.5508982 C4.86826347,7.25149701 5.01796407,6.89820359 5.01796407,6.49101796 C5.01796407,6.08383234 4.86826347,5.73652695 4.56886228,5.4491018 C4.26946108,5.16167665 3.91616766,5.01796407 3.50898204,5.01796407 C3.10179641,5.01796407 2.74850299,5.16167665 2.4491018,5.4491018 C2.1497006,5.73652695 2,6.08383234 2,6.49101796 C2,6.89820359 2.1497006,7.25149701 2.4491018,7.5508982 C2.74850299,7.8502994 3.10179641,8 3.50898204,8 Z M12.491018,10.9820359 C12.8982036,10.9820359 13.251497,10.8383234 13.5508982,10.5508982 C13.8502994,10.2634731 14,9.91616766 14,9.50898204 C14,9.10179641 13.8502994,8.74850299 13.5508982,8.4491018 C13.251497,8.1497006 12.8982036,8 12.491018,8 C12.0838323,8 11.7305389,8.1497006 11.4311377,8.4491018 C11.1317365,8.74850299 10.9820359,9.10179641 10.9820359,9.50898204 C10.9820359,9.91616766 11.1317365,10.2634731 11.4311377,10.5508982 C11.7305389,10.8383234 12.0838323,10.9820359 12.491018,10.9820359 Z M6.49101796,10.9820359 C6.89820359,10.9820359 7.25149701,10.8383234 7.5508982,10.5508982 C7.8502994,10.2634731 8,9.91616766 8,9.50898204 C8,9.10179641 7.8502994,8.74850299 7.5508982,8.4491018 C7.25149701,8.1497006 6.89820359,8 6.49101796,8 C6.08383234,8 5.73652695,8.1497006 5.4491018,8.4491018 C5.16167665,8.74850299 5.01796407,9.10179641 5.01796407,9.50898204 C5.01796407,9.91616766 5.16167665,10.2634731 5.4491018,10.5508982 C5.73652695,10.8383234 6.08383234,10.9820359 6.49101796,10.9820359 Z M9.50898204,14 C9.91616766,14 10.2634731,13.8502994 10.5508982,13.5508982 C10.8383234,13.251497 10.9820359,12.8982036 10.9820359,12.491018 C10.9820359,12.0838323 10.8383234,11.7305389 10.5508982,11.4311377 C10.2634731,11.1317365 9.91616766,10.9820359 9.50898204,10.9820359 C9.10179641,10.9820359 8.74850299,11.1317365 8.4491018,11.4311377 C8.1497006,11.7305389 8,12.0838323 8,12.491018 C8,12.8982036 8.1497006,13.251497 8.4491018,13.5508982 C8.74850299,13.8502994 9.10179641,14 9.50898204,14 Z M3.50898204,14 C3.91616766,14 4.26946108,13.8502994 4.56886228,13.5508982 C4.86826347,13.251497 5.01796407,12.8982036 5.01796407,12.491018 C5.01796407,12.0838323 4.86826347,11.7305389 4.56886228,11.4311377 C4.26946108,11.1317365 3.91616766,10.9820359 3.50898204,10.9820359 C3.10179641,10.9820359 2.74850299,11.1317365 2.4491018,11.4311377 C2.1497006,11.7305389 2,12.0838323 2,12.491018 C2,12.8982036 2.1497006,13.251497 2.4491018,13.5508982 C2.74850299,13.8502994 3.10179641,14 3.50898204,14 Z" id="" fill="#FFFFFF" fill-rule="nonzero"></path>
    </g>
</svg>