<?xml version="1.0" encoding="UTF-8"?>
<svg width="16px" height="16px" viewBox="0 0 16 16" version="1.1" xmlns="http://www.w3.org/2000/svg" xmlns:xlink="http://www.w3.org/1999/xlink">
    <title>Icons/00_MISC/Online</title>
    <g id="Icons/00_MISC/Online" stroke="none" stroke-width="1" fill="none" fill-rule="evenodd">
        <path d="M8,14 C9.0859375,14 10.0898438,13.7324219 11.0117188,13.1972656 C11.9335938,12.6621094 12.6621094,11.9335938 13.1972656,11.0117188 C13.7324219,10.0898438 14,9.0859375 14,8 C14,6.9140625 13.7324219,5.91015625 13.1972656,4.98828125 C12.6621094,4.06640625 11.9335938,3.33984375 11.0117188,2.80859375 C10.0898438,2.26953125 9.0859375,2 8,2 C6.9140625,2 5.91015625,2.26757812 4.98828125,2.80273438 C4.06640625,3.33789062 3.33789062,4.06640625 2.80273438,4.98828125 C2.26757812,5.91015625 2,6.9140625 2,8 C2,9.0859375 2.26757812,10.0898438 2.80273438,11.0117188 C3.33789062,11.9335938 4.06640625,12.6621094 4.98828125,13.1972656 C5.91015625,13.7324219 6.9140625,14 8,14 Z M6.5234375,10.5429688 C6.359375,10.5429688 6.23828125,10.4726562 6.16015625,10.3320312 L4.8828125,8.09375 C4.8203125,7.9921875 4.8046875,7.88671875 4.8359375,7.77734375 C4.8671875,7.66796875 4.93359375,7.58398438 5.03515625,7.52539062 C5.13671875,7.46679688 5.24414062,7.453125 5.35742188,7.484375 C5.47070312,7.515625 5.5546875,7.58203125 5.609375,7.68359375 L6.6171875,9.4296875 L10.4492188,5.5859375 C10.5351562,5.5 10.6367188,5.45703125 10.7539062,5.45703125 C10.8710938,5.45703125 10.9707031,5.49804688 11.0527344,5.58007812 C11.1347656,5.66210938 11.1757812,5.76171875 11.1757812,5.87890625 C11.1757812,5.99609375 11.1328125,6.09375 11.046875,6.171875 L6.83984375,10.4023438 L6.828125,10.4140625 C6.8046875,10.4375 6.7734375,10.4609375 6.734375,10.484375 C6.671875,10.5234375 6.6015625,10.5429688 6.5234375,10.5429688 Z" id="" fill="#FFFFFF" fill-rule="nonzero"></path>
    </g>
</svg>