<?xml version="1.0" encoding="UTF-8"?>
<svg width="16px" height="16px" viewBox="0 0 16 16" version="1.1" xmlns="http://www.w3.org/2000/svg" xmlns:xlink="http://www.w3.org/1999/xlink">
    <title>Icons/00_MISC/OrderAZ</title>
    <g id="Icons/00_MISC/OrderAZ" stroke="none" stroke-width="1" fill="none" fill-rule="evenodd">
        <path d="M4.40222859,14 C4.45676138,14 4.51129417,13.9799107 4.55901036,13.9397321 L6.73350545,11.8035714 C6.77440504,11.7566964 6.80167144,11.703125 6.80167144,11.6428571 C6.80167144,11.5223214 6.70623905,11.4285714 6.58354027,11.4285714 L5.27475326,11.4285714 L5.27475326,2.21428571 C5.27475326,2.09375 5.17932087,2 5.05662209,2 L3.74783508,2 C3.6251363,2 3.52970391,2.09375 3.52970391,2.21428571 L3.52970391,11.4285714 L2.2209169,11.4285714 C2.13230112,11.4285714 2.05050193,11.4821429 2.01641893,11.5625 C1.98233594,11.6428571 2.00278573,11.7299107 2.06413512,11.796875 L4.24544681,13.9397321 C4.293163,13.9799107 4.34769579,14 4.40222859,14 Z M9.8555078,3.71428571 C9.97820658,3.71428571 10.073639,3.62053571 10.073639,3.5 L10.073639,2.21428571 C10.073639,2.09375 9.97820658,2 9.8555078,2 L8.11045845,2 C7.98775967,2 7.89232728,2.09375 7.89232728,2.21428571 L7.89232728,3.5 C7.89232728,3.62053571 7.98775967,3.71428571 8.11045845,3.71428571 L9.8555078,3.71428571 Z M11.1642948,7.14285714 C11.2869936,7.14285714 11.382426,7.04910714 11.382426,6.92857143 L11.382426,5.64285714 C11.382426,5.52232143 11.2869936,5.42857143 11.1642948,5.42857143 L8.11045845,5.42857143 C7.98775967,5.42857143 7.89232728,5.52232143 7.89232728,5.64285714 L7.89232728,6.92857143 C7.89232728,7.04910714 7.98775967,7.14285714 8.11045845,7.14285714 L11.1642948,7.14285714 Z M12.4730818,10.5714286 C12.5957806,10.5714286 12.691213,10.4776786 12.691213,10.3571429 L12.691213,9.07142857 C12.691213,8.95089286 12.5957806,8.85714286 12.4730818,8.85714286 L8.11045845,8.85714286 C7.98775967,8.85714286 7.89232728,8.95089286 7.89232728,9.07142857 L7.89232728,10.3571429 C7.89232728,10.4776786 7.98775967,10.5714286 8.11045845,10.5714286 L12.4730818,10.5714286 Z M13.7818688,14 C13.9045676,14 14,13.90625 14,13.7857143 L14,12.5 C14,12.3794643 13.9045676,12.2857143 13.7818688,12.2857143 L8.11045845,12.2857143 C7.98775967,12.2857143 7.89232728,12.3794643 7.89232728,12.5 L7.89232728,13.7857143 C7.89232728,13.90625 7.98775967,14 8.11045845,14 L13.7818688,14 Z" id="" fill="#FFFFFF" fill-rule="nonzero"></path>
    </g>
</svg>