<?xml version="1.0" encoding="UTF-8"?>
<svg width="16px" height="16px" viewBox="0 0 16 16" version="1.1" xmlns="http://www.w3.org/2000/svg" xmlns:xlink="http://www.w3.org/1999/xlink">
    <title>Icons/00_MISC/Order</title>
    <g id="Icons/00_MISC/Order" stroke="none" stroke-width="1" fill="none" fill-rule="evenodd">
        <path d="M6.2548041,2.5 C6.31209606,2.5 6.3591566,2.51841499 6.39598714,2.55524554 C6.43281768,2.59207608 6.45123268,2.63913662 6.45123268,2.69642857 L6.45123268,11.1428571 L7.6298041,11.1428571 C7.68709606,11.1428571 7.7341566,11.1612721 7.77098714,11.1981027 C7.80781768,11.2349332 7.82623268,11.2819938 7.82623268,11.3392857 C7.82623268,11.3883931 7.80577157,11.4374998 7.76484875,11.4866071 L5.80670143,13.4447545 C5.7657786,13.481585 5.71871806,13.5 5.66551839,13.5 C5.616411,13.5 5.56935046,13.481585 5.52433535,13.4447545 L3.56004964,11.4804688 C3.49866541,11.4149922 3.48434263,11.3433784 3.51708089,11.265625 C3.54981915,11.1837794 3.61120246,11.1428571 3.70123268,11.1428571 L4.8798041,11.1428571 L4.8798041,2.69642857 C4.8798041,2.63913662 4.8982191,2.59207608 4.93504964,2.55524554 C4.97188018,2.51841499 5.01894072,2.5 5.07623268,2.5 L6.2548041,2.5 Z M10.4738939,2.5 C10.5270936,2.5 10.5741541,2.51841499 10.615077,2.55524554 L10.615077,2.55524554 L12.5732243,4.51339286 C12.6141471,4.56250025 12.6346082,4.6116069 12.6346082,4.66071429 C12.6346082,4.71800624 12.6161932,4.76506678 12.5793627,4.80189732 C12.5425321,4.83872786 12.4954716,4.85714286 12.4381796,4.85714286 L12.4381796,4.85714286 L11.2596082,4.85714286 L11.2596082,13.3035714 C11.2596082,13.3608634 11.2411932,13.4079239 11.2043627,13.4447545 C11.1675321,13.481585 11.1204716,13.5 11.0631796,13.5 L11.0631796,13.5 L9.88460821,13.5 C9.82731626,13.5 9.78025572,13.481585 9.74342517,13.4447545 C9.70659463,13.4079239 9.68817964,13.3608634 9.68817964,13.3035714 L9.68817964,13.3035714 L9.68817964,4.85714286 L8.50960821,4.85714286 C8.419578,4.85714286 8.35819468,4.81622065 8.32545642,4.734375 C8.29271817,4.65662164 8.30704094,4.58500777 8.36842517,4.51953125 L8.36842517,4.51953125 L10.3327109,2.55524554 C10.377726,2.51841499 10.4247865,2.5 10.4738939,2.5 Z" id="Combined-Shape" fill="#FFFFFF" fill-rule="nonzero"></path>
    </g>
</svg>