<?xml version="1.0" encoding="UTF-8"?>
<svg width="16px" height="16px" viewBox="0 0 16 16" version="1.1" xmlns="http://www.w3.org/2000/svg" xmlns:xlink="http://www.w3.org/1999/xlink">
    <title>Icons/00_MISC/Paste</title>
    <g id="Icons/00_MISC/Paste" stroke="none" stroke-width="1" fill="none" fill-rule="evenodd">
        <path d="M13.1368286,5.33333333 C13.613545,5.33333333 14,5.74788449 14,6.25925926 L14,6.25925926 L14,12.0740741 C14,12.5854488 13.613545,13 13.1368286,13 L13.1368286,13 L5.33375959,13 C4.85704321,13 4.47058824,12.5854488 4.47058824,12.0740741 L4.47058824,12.0740741 L4.47058824,6.25925926 C4.47058824,5.74788449 4.85704321,5.33333333 5.33375959,5.33333333 L5.33375959,5.33333333 Z M11.9585997,9.7962963 L6.51198849,9.7962963 C6.2736303,9.7962963 6.08040281,10.0035719 6.08040281,10.2592593 C6.08040281,10.5149466 6.2736303,10.7222222 6.51198849,10.7222222 L6.51198849,10.7222222 L11.9585997,10.7222222 C12.1969579,10.7222222 12.3901854,10.5149466 12.3901854,10.2592593 C12.3901854,10.0035719 12.1969579,9.7962963 11.9585997,9.7962963 L11.9585997,9.7962963 Z M10.8518223,3 C11.2267416,3.0024348 11.5294118,3.31497927 11.5294118,3.69967794 L11.5294118,3.69967794 L11.5294118,4.73590982 L5.41815857,4.73590982 C4.46472582,4.73590982 3.69181586,5.52896421 3.69181586,6.50724638 L3.69181586,6.50724638 L3.69181586,10.3333333 L2.68190537,10.3333333 C2.30697846,10.3333333 2.00237296,10.0227747 2,9.63808374 L2,9.63808374 L2,3.69967794 C2,3.31325648 2.30529943,3 2.68190537,3 L2.68190537,3 Z M11.9585997,7.60648148 L6.51198849,7.60648148 C6.2736303,7.60648148 6.08040281,7.81375706 6.08040281,8.06944444 C6.08040281,8.32513183 6.2736303,8.53240741 6.51198849,8.53240741 L6.51198849,8.53240741 L11.9585997,8.53240741 C12.1969579,8.53240741 12.3901854,8.32513183 12.3901854,8.06944444 C12.3901854,7.81375706 12.1969579,7.60648148 11.9585997,7.60648148 L11.9585997,7.60648148 Z" id="Combined-Shape" fill="#FFFFFF" fill-rule="nonzero"></path>
    </g>
</svg>