<?xml version="1.0" encoding="utf-8"?>
<!-- Generator: Adobe Illustrator 25.4.1, SVG Export Plug-In . SVG Version: 6.00 Build 0)  -->
<svg version="1.1" id="Icons_x2F_00_x5F_MISC_x2F_Print"
	 xmlns="http://www.w3.org/2000/svg" xmlns:xlink="http://www.w3.org/1999/xlink" x="0px" y="0px" viewBox="0 0 16 16"
	 style="enable-background:new 0 0 16 16;" xml:space="preserve">
<style type="text/css">
	.st0{fill:#FFFFFF;}
</style>
<path class="st0" d="M12.8,6.8h-0.6c-0.1,0-0.1,0.1-0.1,0.1v0.6c0,0.1,0.1,0.1,0.1,0.1h0.6c0.1,0,0.1-0.1,0.1-0.1V6.9
	C12.9,6.9,12.8,6.8,12.8,6.8z M13.3,5.2h-1.9V1.9c0-0.1-0.1-0.1-0.1-0.1H4.7c-0.1,0-0.1,0.1-0.1,0.1v3.3H2.7c-0.7,0-1.2,0.6-1.2,1.2
	v5.1C1.5,11.8,1.7,12,2,12h2.6v2c0,0.1,0.1,0.1,0.1,0.1h6.6c0.1,0,0.1-0.1,0.1-0.1v-2H14c0.3,0,0.5-0.2,0.5-0.5V6.5
	C14.5,5.8,13.9,5.2,13.3,5.2z M5.6,2.9h4.7v2.4H5.6V2.9z M10.4,13.1H5.6V8.9h4.7V13.1z M13.4,11h-2V7.8H4.6V11h-2V6.5
	c0-0.1,0.1-0.2,0.2-0.2h10.5c0.1,0,0.2,0.1,0.2,0.2V11z"/>
</svg>
