<?xml version="1.0" encoding="UTF-8"?>
<svg width="16px" height="16px" viewBox="0 0 16 16" version="1.1" xmlns="http://www.w3.org/2000/svg" xmlns:xlink="http://www.w3.org/1999/xlink">
    <title>Icons/00_MISC/Profile</title>
    <g id="Icons/00_MISC/Profile" stroke="none" stroke-width="1" fill="none" fill-rule="evenodd">
        <path d="M8,8.18947368 C8.54216867,8.18947368 9.04216867,8.05947053 9.5,7.79946423 C9.95783133,7.53945793 10.3222892,7.1898939 10.5933735,6.75077214 C10.8644578,6.31165038 11,5.8320832 11,5.3120706 C11,4.79205799 10.8644578,4.30671289 10.5933735,3.8560353 C10.3222892,3.40535771 9.95783133,3.05001576 9.5,2.79000945 C9.04216867,2.53000315 8.54216867,2.4 8,2.4 C7.45783133,2.4 6.95783133,2.53000315 6.5,2.79000945 C6.04216867,3.05001576 5.67771084,3.40535771 5.40662651,3.8560353 C5.13554217,4.30671289 5,4.79205799 5,5.3120706 C5,5.8320832 5.13554217,6.31165038 5.40662651,6.75077214 C5.67771084,7.1898939 6.04216867,7.53945793 6.5,7.79946423 C6.95783133,8.05947053 7.45783133,8.18947368 8,8.18947368 Z M14,13.4 L14,12.0383158 C14,11.4871579 13.6287425,10.9900351 12.8862275,10.5469474 C12.2634731,10.1687018 11.4491018,9.86610526 10.4431138,9.63915789 C9.55688623,9.44463158 8.74251497,9.34736842 8,9.34736842 C7.25748503,9.34736842 6.44311377,9.44463158 5.55688623,9.63915789 C4.5508982,9.86610526 3.73652695,10.1687018 3.11377246,10.5469474 C2.37125749,10.9900351 2,11.4871579 2,12.0383158 L2,12.0383158 L2,13.4 L14,13.4 Z" id="î©" fill="#FFFFFF" fill-rule="nonzero"></path>
    </g>
</svg>