<?xml version="1.0" encoding="UTF-8"?>
<svg width="16px" height="16px" viewBox="0 0 16 16" version="1.1" xmlns="http://www.w3.org/2000/svg" xmlns:xlink="http://www.w3.org/1999/xlink">
    <title>Icons/00_MISC/RadioSelected</title>
    <g id="Icons/00_MISC/RadioSelected" stroke="none" stroke-width="1" fill="none" fill-rule="evenodd">
        <path d="M8,0 C12.418278,0 16,3.581722 16,8 C16,12.418278 12.418278,16 8,16 C3.581722,16 0,12.418278 0,8 C0,3.581722 3.581722,0 8,0 Z M8,1.45454545 C4.38504527,1.45454545 1.45454545,4.38504527 1.45454545,8 C1.45454545,11.6149547 4.38504527,14.5454545 8,14.5454545 C11.6149547,14.5454545 14.5454545,11.6149547 14.5454545,8 C14.5454545,4.38504527 11.6149547,1.45454545 8,1.45454545 Z M8,3.63636364 C10.4099698,3.63636364 12.3636364,5.59003018 12.3636364,8 C12.3636364,10.4099698 10.4099698,12.3636364 8,12.3636364 C5.59003018,12.3636364 3.63636364,10.4099698 3.63636364,8 C3.63636364,5.59003018 5.59003018,3.63636364 8,3.63636364 Z" id="Combined-Shape" fill="#FFFFFF"></path>
    </g>
</svg>