<?xml version="1.0" encoding="UTF-8"?>
<svg width="16px" height="16px" viewBox="0 0 16 16" version="1.1" xmlns="http://www.w3.org/2000/svg" xmlns:xlink="http://www.w3.org/1999/xlink">
    <title>Icons/00_MISC/Save</title>
    <g id="Icons/00_MISC/Save" stroke="none" stroke-width="1" fill="none" fill-rule="evenodd">
        <path d="M12.365,13.375 C12.705,13.375 13,13.25 13.25,13 C13.5,12.75 13.625,12.455 13.625,12.115 L13.625,12.115 L13.625,4.615 L11.135,2.125 L3.635,2.125 C3.285,2.125 2.9875,2.25 2.7425,2.5 C2.4975,2.75 2.375,3.045 2.375,3.385 L2.375,3.385 L2.375,12.115 C2.375,12.455 2.4975,12.75 2.7425,13 C2.9875,13.25 3.285,13.375 3.635,13.375 L3.635,13.375 L12.365,13.375 Z M9.875,5.875 L3.635,5.875 L3.635,3.385 L9.875,3.385 L9.875,5.875 Z M8,12.115 C7.67,12.115 7.36,12.03 7.07,11.86 C6.78,11.69 6.55,11.46 6.38,11.17 C6.21,10.88 6.125,10.57 6.125,10.24 C6.125,9.91 6.21,9.6 6.38,9.31 C6.55,9.02 6.78,8.79 7.07,8.62 C7.36,8.45 7.67,8.365 8,8.365 C8.33,8.365 8.64,8.45 8.93,8.62 C9.22,8.79 9.45,9.02 9.62,9.31 C9.79,9.6 9.875,9.91 9.875,10.24 C9.875,10.57 9.79,10.88 9.62,11.17 C9.45,11.46 9.22,11.69 8.93,11.86 C8.64,12.03 8.33,12.115 8,12.115 Z" id="" fill="#FFFFFF" fill-rule="nonzero"></path>
    </g>
</svg>