<?xml version="1.0" encoding="UTF-8"?>
<svg width="16px" height="16px" viewBox="0 0 16 16" version="1.1" xmlns="http://www.w3.org/2000/svg" xmlns:xlink="http://www.w3.org/1999/xlink">
    <title>Icons/00_MISC/ScreenSwitch1</title>
    <g id="Icons/00_MISC/ScreenSwitch1" stroke="none" stroke-width="1" fill="none" fill-rule="evenodd">
        <path d="M12.875,9.5 C13.4963203,9.5 14,10.0036797 14,10.625 L14,12.875 C14,13.4963203 13.4963203,14 12.875,14 L10.625,14 C10.0036797,14 9.5,13.4963203 9.5,12.875 L9.5,10.625 C9.5,10.0036797 10.0036797,9.5 10.625,9.5 L12.875,9.5 Z M12.875,10.4375 L10.625,10.4375 C10.5421573,10.4375 10.4718629,10.4912258 10.4470589,10.5657355 L10.4375,10.625 L10.4375,12.875 C10.4375,12.9578427 10.4912258,13.0281371 10.5657355,13.0529411 L10.625,13.0625 L12.875,13.0625 C12.9578427,13.0625 13.0281371,13.0087742 13.0529411,12.9342645 L13.0625,12.875 L13.0625,10.625 C13.0625,10.5421573 13.0087742,10.4718629 12.9342645,10.4470589 L12.875,10.4375 Z M4.25862034,7.74137966 C4.40145242,7.74137966 4.51724069,7.85716793 4.51724069,8 L4.51724069,11.1896509 C4.51724069,11.3800937 4.67162505,11.534478 4.86206782,11.534478 L7.73770109,11.534478 L7.23091298,11.0277007 C7.12991285,10.9267006 7.12991285,10.762947 7.23091298,10.6619469 C7.3319131,10.5609468 7.49566667,10.5609468 7.5966668,10.6619469 L8.5449414,11.6102215 C8.593445,11.6587226 8.62069425,11.7245057 8.62069425,11.7930984 C8.62069425,11.8616911 8.593445,11.9274742 8.5449414,11.9759753 L7.5966668,12.9242499 C7.49566667,13.02525 7.3319131,13.02525 7.23091298,12.9242499 C7.12991285,12.8232498 7.12991285,12.6594962 7.23091298,12.5584961 L7.73770109,12.0517187 L4.86206782,12.0517187 C4.38596091,12.0517187 4,11.6657578 4,11.1896509 L4,8 C4,7.85716793 4.11578827,7.74137966 4.25862034,7.74137966 Z M8.75978128,3.0757501 C8.86078141,3.17675023 8.86078141,3.34050379 8.75978128,3.44150392 L8.25299316,3.94828126 L11.1286264,3.94828126 C11.6047333,3.94828126 11.9906943,4.33424217 11.9906943,4.81034908 L11.9906943,8 C11.9906943,8.14283207 11.874906,8.25862034 11.7320739,8.25862034 C11.5892418,8.25862034 11.4734536,8.14283207 11.4734536,8 L11.4734536,4.81034908 C11.4734536,4.61990632 11.3190692,4.46552195 11.1286264,4.46552195 L8.25299316,4.46552195 L8.75978128,4.97229929 C8.86078141,5.07329942 8.86078141,5.23705299 8.75978128,5.33805312 C8.65878115,5.43905325 8.49502758,5.43905325 8.39402746,5.33805312 L7.44575286,4.38977852 C7.39724925,4.34127741 7.37,4.2754943 7.37,4.20690161 C7.37,4.13830892 7.39724925,4.0725258 7.44575286,4.0240247 L8.39402746,3.0757501 C8.49502758,2.97474997 8.65878115,2.97474997 8.75978128,3.0757501 Z M5.375,2 C5.99632034,2 6.5,2.50367966 6.5,3.125 L6.5,5.375 C6.5,5.99632034 5.99632034,6.5 5.375,6.5 L3.125,6.5 C2.50367966,6.5 2,5.99632034 2,5.375 L2,3.125 C2,2.50367966 2.50367966,2 3.125,2 L5.375,2 Z M5.375,2.9375 L3.125,2.9375 C3.04215729,2.9375 2.97186292,2.99122583 2.94705887,3.0657355 L2.9375,3.125 L2.9375,5.375 C2.9375,5.45784271 2.99122583,5.52813708 3.0657355,5.55294113 L3.125,5.5625 L5.375,5.5625 C5.45784271,5.5625 5.52813708,5.50877417 5.55294113,5.4342645 L5.5625,5.375 L5.5625,3.125 C5.5625,3.04215729 5.50877417,2.97186292 5.4342645,2.94705887 L5.375,2.9375 Z" id="Combined-Shape" fill="#FFFFFF" fill-rule="nonzero"></path>
    </g>
</svg>