<?xml version="1.0" encoding="UTF-8"?>
<svg width="16px" height="16px" viewBox="0 0 16 16" version="1.1" xmlns="http://www.w3.org/2000/svg" xmlns:xlink="http://www.w3.org/1999/xlink">
    <title>Icons/00_MISC/ScreenSwitch2</title>
    <g id="Icons/00_MISC/ScreenSwitch2" stroke="none" stroke-width="1" fill="none" fill-rule="evenodd">
        <path d="M12.3125,7.25 C13.2444805,7.25 14,8.00551948 14,8.9375 L14,12.3125 C14,13.2444805 13.2444805,14 12.3125,14 L8.9375,14 C8.00551948,14 7.25,13.2444805 7.25,12.3125 L7.25,8.9375 C7.25,8.00551948 8.00551948,7.25 8.9375,7.25 L12.3125,7.25 Z M3.25862034,8 C3.40145242,8 3.51724069,8.11578827 3.51724069,8.25862034 L3.51724069,11.1896509 C3.51724069,11.3800937 3.67162505,11.534478 3.86206782,11.534478 L5.48496053,11.534478 L4.97817241,11.0277007 C4.87717228,10.9267006 4.87717228,10.762947 4.97817241,10.6619469 C5.07917254,10.5609468 5.2429261,10.5609468 5.34392623,10.6619469 L6.29220083,11.6102215 C6.34070443,11.6587226 6.36795369,11.7245057 6.36795369,11.7930984 C6.36795369,11.8616911 6.34070443,11.9274742 6.29220083,11.9759753 L5.34392623,12.9242499 C5.2429261,13.02525 5.07917254,13.02525 4.97817241,12.9242499 C4.87717228,12.8232498 4.87717228,12.6594962 4.97817241,12.5584961 L5.48496053,12.0517187 L3.86206782,12.0517187 C3.38596091,12.0517187 3,11.6657578 3,11.1896509 L3,8.25862034 C3,8.11578827 3.11578827,8 3.25862034,8 Z M12.3125,8.34375 L8.9375,8.34375 C8.64237284,8.34375 8.39753707,8.55907305 8.35152119,8.84119067 L8.34375,8.9375 L8.34375,12.3125 C8.34375,12.6076272 8.55907305,12.8524629 8.84119067,12.8984788 L8.9375,12.90625 L12.3125,12.90625 C12.6076272,12.90625 12.8524629,12.6909269 12.8984788,12.4088093 L12.90625,12.3125 L12.90625,8.9375 C12.90625,8.64237284 12.6909269,8.39753707 12.4088093,8.35152119 L12.3125,8.34375 Z M5.9375,2 C6.66237373,2 7.25,2.58762627 7.25,3.3125 L7.25,5.9375 C7.25,6.66237373 6.66237373,7.25 5.9375,7.25 L3.3125,7.25 C2.58762627,7.25 2,6.66237373 2,5.9375 L2,3.3125 C2,2.58762627 2.58762627,2 3.3125,2 L5.9375,2 Z M5.9375,3.09375 L3.3125,3.09375 C3.21182309,3.09375 3.12703131,3.1617623 3.10156396,3.25434758 L3.09375,3.3125 L3.09375,5.9375 C3.09375,6.03817691 3.1617623,6.12296869 3.25434758,6.14843604 L3.3125,6.15625 L5.9375,6.15625 C6.03817691,6.15625 6.12296869,6.0882377 6.14843604,5.99565242 L6.15625,5.9375 L6.15625,3.3125 C6.15625,3.21182309 6.0882377,3.12703131 5.99565242,3.10156396 L5.9375,3.09375 Z M9.75978128,3.0757501 C9.86078141,3.17675023 9.86078141,3.34050379 9.75978128,3.44150392 L9.25299316,3.94828126 L11.1286264,3.94828126 C11.6047333,3.94828126 11.9906943,4.33424217 11.9906943,4.81034908 L11.9906943,5.74137966 C11.9906943,5.88421173 11.874906,6 11.7320739,6 C11.5892418,6 11.4734536,5.88421173 11.4734536,5.74137966 L11.4734536,4.81034908 C11.4734536,4.61990632 11.3190692,4.46552195 11.1286264,4.46552195 L9.25299316,4.46552195 L9.75978128,4.97229929 C9.86078141,5.07329942 9.86078141,5.23705299 9.75978128,5.33805312 C9.65878115,5.43905325 9.49502758,5.43905325 9.39402746,5.33805312 L8.44575286,4.38977852 C8.39724925,4.34127741 8.37,4.2754943 8.37,4.20690161 C8.37,4.13830892 8.39724925,4.0725258 8.44575286,4.0240247 L9.39402746,3.0757501 C9.49502758,2.97474997 9.65878115,2.97474997 9.75978128,3.0757501 Z" id="Combined-Shape" fill="#FFFFFF" fill-rule="nonzero"></path>
    </g>
</svg>