<?xml version="1.0" encoding="UTF-8"?>
<svg width="16px" height="16px" viewBox="0 0 16 16" version="1.1" xmlns="http://www.w3.org/2000/svg" xmlns:xlink="http://www.w3.org/1999/xlink">
    <title>Icons/00_MISC/Search</title>
    <g id="Icons/00_MISC/Search" stroke="none" stroke-width="1" fill="none" fill-rule="evenodd">
        <path d="M13.0769231,14 C13.5817308,14 14,13.5817308 14,13.0769231 C14,12.8317308 13.8990385,12.59375 13.7331731,12.4278846 L11.2596154,9.95432692 C11.84375,9.11057692 12.1538462,8.10096154 12.1538462,7.07692308 C12.1538462,4.27163462 9.88221154,2 7.07692308,2 C4.27163462,2 2,4.27163462 2,7.07692308 C2,9.88221154 4.27163462,12.1538462 7.07692308,12.1538462 C8.10096154,12.1538462 9.11057692,11.84375 9.95432692,11.2596154 L12.4278846,13.7259615 C12.59375,13.8990385 12.8317308,14 13.0769231,14 Z M7.07692308,10.3076923 C5.29567308,10.3076923 3.84615385,8.85817308 3.84615385,7.07692308 C3.84615385,5.29567308 5.29567308,3.84615385 7.07692308,3.84615385 C8.85817308,3.84615385 10.3076923,5.29567308 10.3076923,7.07692308 C10.3076923,8.85817308 8.85817308,10.3076923 7.07692308,10.3076923 Z" id="" fill="#FFFFFF" fill-rule="nonzero"></path>
    </g>
</svg>