<?xml version="1.0" encoding="UTF-8"?>
<svg width="16px" height="16px" viewBox="0 0 16 16" version="1.1" xmlns="http://www.w3.org/2000/svg" xmlns:xlink="http://www.w3.org/1999/xlink">
    <title>Icons/00_MISC/Setting2</title>
    <g id="Icons/00_MISC/Setting2" stroke="none" stroke-width="1" fill="none" fill-rule="evenodd">
        <path d="M10,6 L10,2 L11.344,2 L11.344,3.344 L14,3.344 L14,4.656 L11.344,4.656 L11.344,6 L10,6 Z M14,8.8 L7.2,8.8 L7.2,7.6 L14,7.6 L14,8.8 Z M4.656,6 L6,6 L6,10 L4.656,10 L4.656,8.656 L2,8.656 L2,7.344 L4.656,7.344 L4.656,6 Z M8.54038462,14 L7.2,14 L7.2,10 L8.54038462,10 L8.54038462,11.344 L14,11.344 L14,12.656 L8.54038462,12.656 L8.54038462,14 Z M2,3.6 L8.8,3.6 L8.8,4.8 L2,4.8 L2,3.6 Z M2,11.6 L6,11.6 L6,12.8 L2,12.8 L2,11.6 Z" id="" fill="#FFFFFF" fill-rule="nonzero"></path>
    </g>
</svg>