<?xml version="1.0" encoding="UTF-8"?>
<svg width="16px" height="16px" viewBox="0 0 16 16" version="1.1" xmlns="http://www.w3.org/2000/svg" xmlns:xlink="http://www.w3.org/1999/xlink">
    <title>Icons/00_MISC/Setting1</title>
    <g id="Icons/00_MISC/Setting1" stroke="none" stroke-width="1" fill="none" fill-rule="evenodd">
        <path d="M8.8671875,14 C9.0078125,14 9.1171875,13.90625 9.1484375,13.78125 C9.2734375,13.3125 9.3203125,12.8046875 9.375,12.328125 C9.6171875,12.25 9.859375,12.1484375 10.0859375,12.03125 L11.1640625,12.875 C11.2265625,12.9140625 11.296875,12.9453125 11.3671875,12.9453125 C11.6328125,12.9453125 12.6875,11.796875 12.875,11.546875 C12.921875,11.4921875 12.9453125,11.4375 12.9453125,11.3671875 C12.9453125,11.296875 12.9140625,11.2265625 12.8671875,11.171875 C12.578125,10.8203125 12.296875,10.4765625 12.03125,10.09375 C12.15625,9.8671875 12.25,9.6328125 12.3359375,9.3828125 L13.78125,9.1640625 C13.90625,9.140625 14,9 14,8.8828125 L14,7.1484375 C14,7.015625 13.90625,6.890625 13.7734375,6.8671875 L12.34375,6.6484375 C12.265625,6.390625 12.15625,6.1328125 12.0234375,5.8828125 C12.2890625,5.515625 12.578125,5.171875 12.84375,4.8125 C12.8828125,4.7578125 12.90625,4.703125 12.90625,4.6328125 C12.90625,4.5703125 12.890625,4.5078125 12.8515625,4.4609375 C12.5234375,4 11.9765625,3.515625 11.5625,3.1328125 C11.5078125,3.0859375 11.4375,3.0546875 11.3671875,3.0546875 C11.296875,3.0546875 11.2265625,3.078125 11.1796875,3.125 L10.0703125,3.9609375 C9.84375,3.84375 9.609375,3.75 9.3671875,3.671875 L9.1484375,2.234375 C9.1328125,2.1015625 9.0078125,2 8.8671875,2 L7.1328125,2 C6.9921875,2 6.8828125,2.09375 6.8515625,2.21875 C6.7265625,2.6875 6.6796875,3.1953125 6.625,3.671875 C6.3828125,3.75 6.140625,3.8515625 5.9140625,3.96875 L4.8359375,3.1328125 C4.7734375,3.0859375 4.703125,3.0546875 4.6328125,3.0546875 C4.3671875,3.0546875 3.3125,4.1953125 3.125,4.453125 C3.0859375,4.5078125 3.0546875,4.5625 3.0546875,4.6328125 C3.0546875,4.703125 3.0859375,4.765625 3.1328125,4.8203125 C3.421875,5.171875 3.703125,5.5234375 3.96875,5.8984375 C3.84375,6.1328125 3.7421875,6.3671875 3.6640625,6.6171875 L2.2109375,6.8359375 C2.09375,6.859375 2,7 2,7.1171875 L2,8.8515625 C2,8.984375 2.09375,9.109375 2.2265625,9.1328125 L3.65625,9.34375 C3.734375,9.609375 3.84375,9.8671875 3.9765625,10.1171875 C3.7109375,10.484375 3.421875,10.828125 3.15625,11.1875 C3.1171875,11.2421875 3.09375,11.296875 3.09375,11.3671875 C3.09375,11.4296875 3.109375,11.4921875 3.1484375,11.546875 C3.4765625,12 4.0234375,12.484375 4.4375,12.859375 C4.4921875,12.9140625 4.5625,12.9453125 4.6328125,12.9453125 C4.703125,12.9453125 4.7734375,12.921875 4.828125,12.875 L5.9296875,12.0390625 C6.15625,12.15625 6.390625,12.25 6.6328125,12.328125 L6.8515625,13.765625 C6.8671875,13.8984375 6.9921875,14 7.1328125,14 L8.8671875,14 Z M8,10 C6.8984375,10 6,9.1015625 6,8 C6,6.8984375 6.8984375,6 8,6 C9.1015625,6 10,6.8984375 10,8 C10,9.1015625 9.1015625,10 8,10 Z" id="" fill="#FFFFFF" fill-rule="nonzero"></path>
    </g>
</svg>