<?xml version="1.0" encoding="UTF-8"?>
<svg width="16px" height="16px" viewBox="0 0 16 16" version="1.1" xmlns="http://www.w3.org/2000/svg" xmlns:xlink="http://www.w3.org/1999/xlink">
    <title>Icons/00_MISC/Show</title>
    <g id="Icons/00_MISC/Show" stroke="none" stroke-width="1" fill="none" fill-rule="evenodd">
        <path d="M8,12 C8.89760349,12 9.75163399,11.8293333 10.5620915,11.488 C11.3464052,11.1552 12.037037,10.688 12.6339869,10.0864 C13.2309368,9.4848 13.6862745,8.79146667 14,8.0064 C13.6862745,7.22133333 13.2309368,6.52586667 12.6339869,5.92 C12.037037,5.31413333 11.3464052,4.8448 10.5620915,4.512 C9.75163399,4.17066667 8.89760349,4 8,4 C7.10239651,4 6.24836601,4.17066667 5.4379085,4.512 C4.65359477,4.8448 3.96296296,5.31413333 3.36601307,5.92 C2.76906318,6.52586667 2.31372549,7.22133333 2,8.0064 C2.31372549,8.79146667 2.76906318,9.4848 3.36601307,10.0864 C3.96296296,10.688 4.65359477,11.1552 5.4379085,11.488 C6.24836601,11.8293333 7.10239651,12 8,12 Z M8,10.6816 C7.50326797,10.6816 7.04575163,10.5621333 6.62745098,10.3232 C6.20915033,10.0842667 5.87799564,9.76 5.63398693,9.3504 C5.38997821,8.9408 5.26797386,8.4928 5.26797386,8.0064 C5.26797386,7.52 5.38997821,7.072 5.63398693,6.6624 C5.87799564,6.2528 6.20915033,5.92853333 6.62745098,5.6896 C7.04575163,5.45066667 7.50326797,5.3312 8,5.3312 C8.49673203,5.3312 8.95424837,5.45066667 9.37254902,5.6896 C9.79084967,5.92853333 10.1220044,6.2528 10.3660131,6.6624 C10.6100218,7.072 10.7320261,7.52 10.7320261,8.0064 C10.7320261,8.4928 10.6100218,8.9408 10.3660131,9.3504 C10.1220044,9.76 9.79084967,10.0842667 9.37254902,10.3232 C8.95424837,10.5621333 8.49673203,10.6816 8,10.6816 Z M8,9.6064 C8.2875817,9.6064 8.5577342,9.53386667 8.81045752,9.3888 C9.06318083,9.24373333 9.26361656,9.04746667 9.41176471,8.8 C9.55991285,8.55253333 9.63398693,8.288 9.63398693,8.0064 C9.63398693,7.7248 9.55991285,7.46026667 9.41176471,7.2128 C9.26361656,6.96533333 9.06318083,6.76906667 8.81045752,6.624 C8.5577342,6.47893333 8.2875817,6.4064 8,6.4064 C7.7124183,6.4064 7.4422658,6.47893333 7.18954248,6.624 C6.93681917,6.76906667 6.73638344,6.96533333 6.58823529,7.2128 C6.44008715,7.46026667 6.36601307,7.7248 6.36601307,8.0064 C6.36601307,8.288 6.44008715,8.55253333 6.58823529,8.8 C6.73638344,9.04746667 6.93681917,9.24373333 7.18954248,9.3888 C7.4422658,9.53386667 7.7124183,9.6064 8,9.6064 Z" id="-copy" fill="#FFFFFF" fill-rule="nonzero"></path>
    </g>
</svg>