<?xml version="1.0" encoding="UTF-8"?>
<svg width="16px" height="16px" viewBox="0 0 16 16" version="1.1" xmlns="http://www.w3.org/2000/svg" xmlns:xlink="http://www.w3.org/1999/xlink">
    <title>Icons/00_MISC/SmallScreen</title>
    <g id="Icons/00_MISC/SmallScreen" stroke="none" stroke-width="1" fill="none" fill-rule="evenodd">
        <path d="M12.0688742,8 C12.3470199,8 12.5774834,7.76953642 12.5774834,7.49139073 C12.5774834,7.35629139 12.5218543,7.22913907 12.4264901,7.13377483 L11.2821192,5.98940397 L13.9205298,3.35099338 C13.9682119,3.30331126 14,3.23178808 14,3.16821192 C14,3.10463576 13.9682119,3.03311258 13.9205298,2.98543046 L13.0145695,2.0794702 C12.9668874,2.03178808 12.8953642,2 12.8317881,2 C12.7682119,2 12.6966887,2.03178808 12.6490066,2.0794702 L10.010596,4.71788079 L8.86622517,3.57350993 C8.77086093,3.4781457 8.64370861,3.42251656 8.50860927,3.42251656 C8.23046358,3.42251656 8,3.65298013 8,3.93112583 L8,7.49139073 C8,7.76953642 8.23046358,8 8.50860927,8 L12.0688742,8 Z M3.16821192,14 C3.23178808,14 3.30331126,13.9682119 3.35099338,13.9205298 L5.98940397,11.2821192 L7.13377483,12.4264901 C7.22913907,12.5218543 7.35629139,12.5774834 7.49139073,12.5774834 C7.76953642,12.5774834 8,12.3470199 8,12.0688742 L8,8.50860927 C8,8.23046358 7.76953642,8 7.49139073,8 L3.93112583,8 C3.65298013,8 3.42251656,8.23046358 3.42251656,8.50860927 C3.42251656,8.64370861 3.4781457,8.77086093 3.57350993,8.86622517 L4.71788079,10.010596 L2.0794702,12.6490066 C2.03178808,12.6966887 2,12.7682119 2,12.8317881 C2,12.8953642 2.03178808,12.9668874 2.0794702,13.0145695 L2.98543046,13.9205298 C3.03311258,13.9682119 3.10463576,14 3.16821192,14 Z" id="ï¦" fill="#FFFFFF" fill-rule="nonzero"></path>
    </g>
</svg>