<?xml version="1.0" encoding="UTF-8"?>
<svg width="16px" height="16px" viewBox="0 0 16 16" version="1.1" xmlns="http://www.w3.org/2000/svg" xmlns:xlink="http://www.w3.org/1999/xlink">
    <title>Icons/00_MISC/Speed</title>
    <g id="Icons/00_MISC/Speed" stroke="none" stroke-width="1" fill="none" fill-rule="evenodd">
        <path d="M6.86523438,14.8613281 C7.00195312,14.8613281 7.125,14.8317057 7.234375,14.7724609 C7.34375,14.7132161 7.44401042,14.624349 7.53515625,14.5058594 L12.4433594,7.47851562 C12.5345052,7.34179688 12.5869141,7.19140625 12.6005859,7.02734375 C12.6142578,6.86328125 12.5846354,6.70833333 12.5117187,6.5625 C12.4388021,6.41666667 12.3317057,6.30045573 12.1904297,6.21386719 C12.0491536,6.12727865 11.8964844,6.08398438 11.7324219,6.08398438 L9.203125,6.08398438 L9.99609375,1.96875 C10.0052083,1.93229167 10.0120443,1.89811198 10.0166016,1.86621094 C10.0211589,1.8343099 10.0234375,1.80013021 10.0234375,1.76367188 C10.0234375,1.52669271 9.94140625,1.32389323 9.77734375,1.15527344 C9.61328125,0.986653646 9.41276042,0.897786458 9.17578125,0.888671875 L9.06640625,0.888671875 L9.06640625,0.888671875 C8.99348958,0.897786458 8.92740885,0.913736979 8.86816406,0.936523438 C8.80891927,0.959309896 8.75195312,0.993489583 8.69726562,1.0390625 C8.66080729,1.05729167 8.6266276,1.08007812 8.59472656,1.10742188 C8.56282552,1.13476562 8.53320312,1.16666667 8.50585938,1.203125 C8.49674479,1.21223958 8.48990885,1.22135417 8.48535156,1.23046875 C8.48079427,1.23958333 8.47395833,1.24869792 8.46484375,1.2578125 L3.55664062,7.73828125 C3.46549479,7.875 3.41308594,8.02539062 3.39941406,8.18945312 C3.38574219,8.35351562 3.41536458,8.50846354 3.48828125,8.65429688 C3.56119792,8.80013021 3.66829427,8.91634115 3.80957031,9.00292969 C3.95084635,9.08951823 4.10351562,9.1328125 4.26757812,9.1328125 L6.796875,9.14648438 L5.99023438,13.8359375 C5.95377604,14.0364583 5.98567708,14.2255859 6.0859375,14.4033203 C6.18619792,14.5810547 6.32747396,14.7109375 6.50976562,14.7929688 C6.56445312,14.8203125 6.62141927,14.8385417 6.68066406,14.8476562 C6.73990885,14.8567708 6.80143229,14.8613281 6.86523438,14.8613281 Z M6.86523437,13.9863281 L7.84960937,8.28515625 L4.26757812,8.27148438 L9.13476562,1.76367188 L8.15039062,6.9453125 L11.7324219,6.95898438 L6.86523437,13.9863281 Z" id="" fill="#E9F2F6" fill-rule="nonzero"></path>
    </g>
</svg>