<?xml version="1.0" encoding="UTF-8"?>
<svg width="16px" height="16px" viewBox="0 0 16 16" version="1.1" xmlns="http://www.w3.org/2000/svg" xmlns:xlink="http://www.w3.org/1999/xlink">
    <title>Icons/00_MISC/Spinner</title>
    <g id="Icons/00_MISC/Spinner" stroke="none" stroke-width="1" fill="none" fill-rule="evenodd">
        <path d="M8,4.38888889 C8.76442308,4.38888889 9.38461538,3.74189815 9.38461538,2.94444444 C9.38461538,2.14699074 8.76442308,1.5 8,1.5 C7.23557692,1.5 6.61538462,2.14699074 6.61538462,2.94444444 C6.61538462,3.74189815 7.23557692,4.38888889 8,4.38888889 Z M11.5913462,6.17939815 C12.4783654,6.17939815 13.2067308,5.42708333 13.2067308,4.49421296 C13.2067308,3.56886574 12.4783654,2.80902778 11.5913462,2.80902778 C10.6971154,2.80902778 9.97596154,3.56886574 9.97596154,4.49421296 C9.97596154,5.42708333 10.6971154,6.17939815 11.5913462,6.17939815 Z M4.40865385,5.69791667 C5.04326923,5.69791667 5.5625,5.15625 5.5625,4.49421296 C5.5625,3.83217593 5.04326923,3.29050926 4.40865385,3.29050926 C3.77403846,3.29050926 3.25480769,3.83217593 3.25480769,4.49421296 C3.25480769,5.15625 3.77403846,5.69791667 4.40865385,5.69791667 Z M2.92307692,9.2037037 C3.43509615,9.2037037 3.84615385,8.77488426 3.84615385,8.24074074 C3.84615385,7.70659722 3.43509615,7.27777778 2.92307692,7.27777778 C2.41105769,7.27777778 2,7.70659722 2,8.24074074 C2,8.77488426 2.41105769,9.2037037 2.92307692,9.2037037 Z M13.0769231,9.2037037 C13.5889423,9.2037037 14,8.77488426 14,8.24074074 C14,7.70659722 13.5889423,7.27777778 13.0769231,7.27777778 C12.5649038,7.27777778 12.1538462,7.70659722 12.1538462,8.24074074 C12.1538462,8.77488426 12.5649038,9.2037037 13.0769231,9.2037037 Z M4.40865385,12.9502315 C4.92067308,12.9502315 5.33173077,12.5138889 5.33173077,11.9872685 C5.33173077,11.453125 4.92067308,11.0243056 4.40865385,11.0243056 C3.90384615,11.0243056 3.48557692,11.453125 3.48557692,11.9872685 C3.48557692,12.5138889 3.90384615,12.9502315 4.40865385,12.9502315 Z M11.5913462,12.9502315 C12.0961538,12.9502315 12.5144231,12.5138889 12.5144231,11.9872685 C12.5144231,11.453125 12.0961538,11.0243056 11.5913462,11.0243056 C11.0793269,11.0243056 10.6682692,11.453125 10.6682692,11.9872685 C10.6682692,12.5138889 11.0793269,12.9502315 11.5913462,12.9502315 Z M8,14.5 C8.51201923,14.5 8.92307692,14.0711806 8.92307692,13.537037 C8.92307692,13.0028935 8.51201923,12.5740741 8,12.5740741 C7.48798077,12.5740741 7.07692308,13.0028935 7.07692308,13.537037 C7.07692308,14.0711806 7.48798077,14.5 8,14.5 Z" id="ï„" fill="#FFFFFF" fill-rule="nonzero"></path>
    </g>
</svg>