<?xml version="1.0" encoding="UTF-8"?>
<svg width="16px" height="16px" viewBox="0 0 16 16" version="1.1" xmlns="http://www.w3.org/2000/svg" xmlns:xlink="http://www.w3.org/1999/xlink">
    <title>Icons/00_MISC/Start</title>
    <g id="Icons/00_MISC/Start" stroke="none" stroke-width="1" fill="none" fill-rule="evenodd">
        <path d="M8,14.0000012 C11.3125111,14.0000012 14.0000143,11.312498 14.0000143,7.99998689 C14.0000143,4.68749009 11.3125111,1.99998689 8,1.99998689 C4.6875032,1.99998689 2,4.68749009 2,7.99998689 C2,11.312498 4.6875032,14.0000012 8,14.0000012 Z M6.50000477,10.9999976 C6.41406776,10.9999976 6.32813016,10.9765601 6.25000507,10.9374975 C6.09375488,10.8437474 6.00000477,10.6796847 6.00000477,10.499997 L6.00000477,5.49999106 C6.00000477,5.32030335 6.09375488,5.15624065 6.25000507,5.06249054 C6.40625525,4.97655294 6.60156799,4.97655294 6.75000566,5.07030305 L11.0000048,7.57030603 C11.1562609,7.65624363 11.250011,7.82030633 11.250011,7.99999404 C11.250011,8.17968175 11.1562609,8.34374445 11.0000048,8.42968205 L6.75000566,10.929685 C6.67188057,10.9765601 6.58594297,10.9999976 6.50000477,10.9999976 Z" id="" fill="#FFFFFF" fill-rule="nonzero"></path>
    </g>
</svg>