<?xml version="1.0" encoding="UTF-8"?>
<svg width="16px" height="16px" viewBox="0 0 16 16" version="1.1" xmlns="http://www.w3.org/2000/svg" xmlns:xlink="http://www.w3.org/1999/xlink">
    <title>Icons/00_MISC/Stop</title>
    <g id="Icons/00_MISC/Stop" stroke="none" stroke-width="1" fill="none" fill-rule="evenodd">
        <path d="M8,14.0000012 C11.3125111,14.0000012 14.0000143,11.312498 14.0000143,7.99998689 C14.0000143,4.68749009 11.3125111,1.99998689 8,1.99998689 C4.6875032,1.99998689 2,4.68749009 2,7.99998689 C2,11.312498 4.6875032,14.0000012 8,14.0000012 Z M10.2500098,10.4999911 L5.75000447,10.4999911 C5.6093793,10.4999911 5.50000417,10.3906219 5.50000417,10.2499967 L5.50000417,5.74999136 C5.50000417,5.60936619 5.6093793,5.49999106 5.75000447,5.49999106 L10.2500098,5.49999106 C10.390635,5.49999106 10.5000042,5.60936619 10.5000042,5.74999136 L10.5000042,10.2499967 C10.5000042,10.3906219 10.390635,10.4999911 10.2500098,10.4999911 Z" id="ïŠ" fill="#FFFFFF" fill-rule="nonzero"></path>
    </g>
</svg>