<?xml version="1.0" encoding="UTF-8"?>
<svg width="16px" height="16px" viewBox="0 0 16 16" version="1.1" xmlns="http://www.w3.org/2000/svg" xmlns:xlink="http://www.w3.org/1999/xlink">
    <title>Icons/00_MISC/Switcher</title>
    <g id="Icons/00_MISC/Switcher" stroke="none" stroke-width="1" fill="none" fill-rule="evenodd">
        <path d="M2.56330014,7 C2.55192028,7 2.54623044,6.9966667 2.54623044,6.99 C2.54623044,6.9833333 2.54338552,6.98 2.53769559,6.98 L2.46088193,6.98 L2.44381223,6.96 L2.39260313,6.96 L2.37553343,6.94 L2.35846373,6.94 L2.34139403,6.92 L2.30725462,6.92 L2.30725462,6.9 L2.29018492,6.9 L2.27311522,6.88 L2.25604552,6.88 L2.25604552,6.86 L2.23897582,6.86 L2.20483642,6.82 L2.18776671,6.82 C2.17638686,6.7933332 2.16500717,6.7733334 2.15362731,6.76 C2.14224745,6.76 2.13655761,6.7566667 2.13655761,6.75 L2.13655761,6.74 L2.11948791,6.72 L2.11948791,6.7 L2.10241821,6.7 L2.10241821,6.68 L2.08534851,6.66 L2.08534851,6.65 C2.08534851,6.6433333 2.08250358,6.64 2.07681366,6.64 L2.06827881,6.64 L2.06827881,6.62 L2.0512091,6.6 L2.0512091,6.57 C2.0512091,6.5633333 2.04836418,6.56 2.04267425,6.56 L2.0341394,6.56 L2.0341394,6.54 C2.0341394,6.5266666 2.03129448,6.52 2.02560455,6.52 C2.01991462,6.52 2.0170697,6.5166667 2.0170697,6.51 L2.0170697,6.44 L2,6.42 L2,6.14 L2.0170697,6.12 L2.0170697,6.06 C2.02844956,6.0466666 2.0341394,6.0366667 2.0341394,6.03 L2.0341394,6 L2.0512091,5.98 L2.0512091,5.96 L2.06827881,5.94 L2.06827881,5.93 C2.06827881,5.9233333 2.07112373,5.9166667 2.07681366,5.91 L2.08534851,5.9 L2.08534851,5.89 C2.08534851,5.8833333 2.08819343,5.88 2.09388336,5.88 C2.09957329,5.88 2.10241821,5.8766667 2.10241821,5.87 L2.10241821,5.86 L2.11948791,5.84 C2.11948791,5.8266666 2.12517775,5.82 2.13655761,5.82 L2.13655761,5.8 L2.15362731,5.8 L5.20910384,2.22 C5.32290242,2.0733326 5.46514851,2 5.63584637,2 C5.80654424,2 5.94879033,2.0733326 6.0625889,2.22 C6.18776734,2.3666674 6.25035562,2.5366657 6.25035562,2.73 C6.25035562,2.9233343 6.18776734,3.0933326 6.0625889,3.24 L4.08250356,5.56 L13.3854908,5.56 C13.5561886,5.56 13.7012796,5.6299993 13.8207681,5.77 C13.9402566,5.9100007 14,6.079999 14,6.28 C14,6.480001 13.9402566,6.6499993 13.8207681,6.79 C13.7012796,6.9300007 13.5561886,7 13.3854908,7 L2.56330014,7 Z M13.4366999,9 C13.4480797,9 13.4537696,9.0033333 13.4537696,9.01 C13.4537696,9.0166667 13.4566145,9.02 13.4623044,9.02 L13.5391181,9.02 L13.5561878,9.04 L13.6073969,9.04 L13.6073969,9.06 L13.6415363,9.06 L13.658606,9.08 L13.6927454,9.08 L13.6927454,9.1 L13.7098151,9.1 L13.7268848,9.12 L13.7439545,9.12 L13.7439545,9.14 L13.7610242,9.14 L13.7951636,9.18 L13.8122333,9.18 C13.8236131,9.2066668 13.8349928,9.2266666 13.8463727,9.24 C13.8577525,9.24 13.8634424,9.2433333 13.8634424,9.25 L13.8634424,9.26 L13.8805121,9.28 L13.8805121,9.3 L13.8975818,9.3 L13.8975818,9.32 L13.9061166,9.32 C13.9118066,9.32 13.9146515,9.3233333 13.9146515,9.33 L13.9146515,9.35 C13.9146515,9.3566667 13.9174964,9.36 13.9231863,9.36 C13.9288763,9.36 13.9317212,9.3633333 13.9317212,9.37 L13.9317212,9.38 L13.9487909,9.4 L13.9487909,9.43 C13.9487909,9.4366667 13.9516358,9.44 13.9573257,9.44 L13.9658606,9.44 L13.9658606,9.48 L13.9743954,9.49 C13.9800854,9.4966667 13.9829303,9.5033333 13.9829303,9.51 L13.9829303,9.56 L14,9.58 L14,9.86 L13.9829303,9.88 L13.9829303,9.94 L13.9658606,9.96 L13.9658606,10 L13.9487909,10.02 L13.9487909,10.04 L13.9317212,10.06 L13.9317212,10.07 C13.9317212,10.0766667 13.9288763,10.0833333 13.9231863,10.09 L13.9146515,10.1 L13.9146515,10.11 C13.9146515,10.1166667 13.9118066,10.12 13.9061166,10.12 C13.9004267,10.12 13.8975818,10.1233333 13.8975818,10.13 L13.8975818,10.14 L13.8805121,10.16 C13.8805121,10.1733334 13.8776672,10.18 13.8719772,10.18 L13.8634424,10.18 L13.8634424,10.2 L13.8463727,10.2 L13.8378378,10.21 C13.8321479,10.2166667 13.829303,10.2266666 13.829303,10.24 L10.8079659,13.78 C10.6827874,13.9266674 10.5348515,14 10.3641536,14 C10.1934558,14 10.0512097,13.9266674 9.9374111,13.78 C9.81223266,13.646666 9.74964438,13.480001 9.74964438,13.28 C9.74964438,13.079999 9.81223266,12.9066674 9.9374111,12.76 L11.9174964,10.44 L2.61450925,10.44 C2.45519124,10.44 2.31294515,10.3700007 2.18776671,10.23 C2.06258828,10.0899993 2,9.920001 2,9.72 C2,9.519999 2.06258828,9.3500007 2.18776671,9.21 C2.31294515,9.0699993 2.45519124,9 2.61450925,9 L13.4366999,9 Z" id="" fill="#FFFFFF"></path>
    </g>
</svg>