<?xml version="1.0" encoding="UTF-8"?>
<svg width="16px" height="16px" viewBox="0 0 16 16" version="1.1" xmlns="http://www.w3.org/2000/svg" xmlns:xlink="http://www.w3.org/1999/xlink">
    <title>Icons/00_MISC/System</title>
    <g id="Icons/00_MISC/System" stroke="none" stroke-width="1" fill="none" fill-rule="evenodd">
        <path d="M2.75,8.1 C2.75,7.148 2.988,6.266 3.464,5.454 C3.93066667,4.66066667 4.56066667,4.03066667 5.354,3.564 C6.166,3.088 7.048,2.85 8,2.85 C8.952,2.85 9.834,3.088 10.646,3.564 C11.4393333,4.03066667 12.0693333,4.66066667 12.536,5.454 C13.012,6.266 13.25,7.148 13.25,8.1 L13.25,8.1 L14.426,8.1 C14.426,6.94266667 14.132,5.86466667 13.544,4.866 C12.9746667,3.89533333 12.2046667,3.12533333 11.234,2.556 C10.2353333,1.968 9.15733333,1.674 8,1.674 C6.84266667,1.674 5.76466667,1.968 4.766,2.556 C3.79533333,3.12533333 3.02533333,3.89533333 2.456,4.866 C1.868,5.86466667 1.574,6.94266667 1.574,8.1 L1.574,8.1 L2.75,8.1 Z M5.074,8.1 C5.074,7.568 5.20466667,7.078 5.466,6.63 C5.72733333,6.182 6.082,5.82733333 6.53,5.566 C6.978,5.30466667 7.468,5.174 8,5.174 C8.532,5.174 9.022,5.30466667 9.47,5.566 C9.918,5.82733333 10.2726667,6.182 10.534,6.63 C10.7953333,7.078 10.926,7.568 10.926,8.1 L10.926,8.1 L12.074,8.1 C12.074,7.35333333 11.892,6.66733333 11.528,6.042 C11.164,5.426 10.674,4.936 10.058,4.572 C9.43266667,4.208 8.74666667,4.026 8,4.026 C7.25333333,4.026 6.56733333,4.208 5.942,4.572 C5.326,4.936 4.836,5.426 4.472,6.042 C4.108,6.66733333 3.926,7.35333333 3.926,8.1 L3.926,8.1 L5.074,8.1 Z M9.75,14.176 L10.576,13.35 L8.574,11.348 L8.574,9.444 C8.83533333,9.332 9.04766667,9.15466667 9.211,8.912 C9.37433333,8.66933333 9.456,8.39866667 9.456,8.1 C9.456,7.83866667 9.39066667,7.596 9.26,7.372 C9.12933333,7.148 8.952,6.97066667 8.728,6.84 C8.504,6.70933333 8.26133333,6.644 8,6.644 C7.73866667,6.644 7.49833333,6.70933333 7.279,6.84 C7.05966667,6.97066667 6.88466667,7.148 6.754,7.372 C6.62333333,7.596 6.558,7.83866667 6.558,8.1 C6.558,8.39866667 6.63733333,8.66933333 6.796,8.912 C6.95466667,9.15466667 7.16466667,9.332 7.426,9.444 L7.426,9.444 L7.426,11.348 L5.424,13.35 L6.25,14.176 L8,12.426 L9.75,14.176 Z" id="" fill="#FFFFFF" fill-rule="nonzero"></path>
    </g>
</svg>