<?xml version="1.0" encoding="UTF-8"?>
<svg width="16px" height="16px" viewBox="0 0 16 16" version="1.1" xmlns="http://www.w3.org/2000/svg" xmlns:xlink="http://www.w3.org/1999/xlink">
    <g id="Icons/00_MISC/Task1" stroke="none" stroke-width="1" fill="none" fill-rule="evenodd">
        <path d="M12.75,14 C13.0833333,14 13.375,13.875 13.625,13.625 C13.875,13.375 14,13.0833333 14,12.75 L14,12.75 L14,3.25 C14,2.91666667 13.875,2.625 13.625,2.375 C13.375,2.125 13.0833333,2 12.75,2 L12.75,2 L3.25,2 C2.91666667,2 2.625,2.125 2.375,2.375 C2.125,2.625 2,2.91666667 2,3.25 L2,3.25 L2,12.75 C2,13.0833333 2.125,13.375 2.375,13.625 C2.625,13.875 2.91666667,14 3.25,14 L3.25,14 L12.75,14 Z M11.5,6 L4.5,6 L4.5,4.5 L11.5,4.5 L11.5,6 Z M11.5,8.75 L4.5,8.75 L4.5,7.25 L11.5,7.25 L11.5,8.75 Z M9.5,11.5 L4.5,11.5 L4.5,10 L9.5,10 L9.5,11.5 Z" id="" fill="#FFFFFF" fill-rule="nonzero"></path>
    </g>
</svg>