<?xml version="1.0" encoding="UTF-8"?>
<svg width="16px" height="16px" viewBox="0 0 16 16" version="1.1" xmlns="http://www.w3.org/2000/svg" xmlns:xlink="http://www.w3.org/1999/xlink">
    <g id="Icons/00_MISC/Task2" stroke="none" stroke-width="1" fill="none" fill-rule="evenodd">
        <path d="M12.9285714,12.5 C13.5178571,12.5 14,12.0397727 14,11.4772727 L14,4.52272727 C14,3.96022727 13.5178571,3.5 12.9285714,3.5 L3.07142857,3.5 C2.48214286,3.5 2,3.96022727 2,4.52272727 L2,11.4772727 C2,12.0397727 2.48214286,12.5 3.07142857,12.5 L12.9285714,12.5 Z M12.9285714,11.6818182 L3.07142857,11.6818182 C2.95758929,11.6818182 2.85714286,11.5859375 2.85714286,11.4772727 L2.85714286,6.15909091 C2.85714286,6.05042614 2.95758929,5.95454545 3.07142857,5.95454545 L12.9285714,5.95454545 C13.0424107,5.95454545 13.1428571,6.05042614 13.1428571,6.15909091 L13.1428571,11.4772727 C13.1428571,11.5859375 13.0424107,11.6818182 12.9285714,11.6818182 Z M4.35714286,7.59090909 C4.47098214,7.59090909 4.57142857,7.49502841 4.57142857,7.38636364 L4.57142857,6.97727273 C4.57142857,6.86860795 4.47098214,6.77272727 4.35714286,6.77272727 L3.92857143,6.77272727 C3.81473214,6.77272727 3.71428571,6.86860795 3.71428571,6.97727273 L3.71428571,7.38636364 C3.71428571,7.49502841 3.81473214,7.59090909 3.92857143,7.59090909 L4.35714286,7.59090909 Z M12.0714286,7.59090909 C12.1852679,7.59090909 12.2857143,7.49502841 12.2857143,7.38636364 L12.2857143,6.97727273 C12.2857143,6.86860795 12.1852679,6.77272727 12.0714286,6.77272727 L5.64285714,6.77272727 C5.52901786,6.77272727 5.42857143,6.86860795 5.42857143,6.97727273 L5.42857143,7.38636364 C5.42857143,7.49502841 5.52901786,7.59090909 5.64285714,7.59090909 L12.0714286,7.59090909 Z M4.35714286,9.22727273 C4.47098214,9.22727273 4.57142857,9.13139205 4.57142857,9.02272727 L4.57142857,8.61363636 C4.57142857,8.50497159 4.47098214,8.40909091 4.35714286,8.40909091 L3.92857143,8.40909091 C3.81473214,8.40909091 3.71428571,8.50497159 3.71428571,8.61363636 L3.71428571,9.02272727 C3.71428571,9.13139205 3.81473214,9.22727273 3.92857143,9.22727273 L4.35714286,9.22727273 Z M12.0714286,9.22727273 C12.1852679,9.22727273 12.2857143,9.13139205 12.2857143,9.02272727 L12.2857143,8.61363636 C12.2857143,8.50497159 12.1852679,8.40909091 12.0714286,8.40909091 L5.64285714,8.40909091 C5.52901786,8.40909091 5.42857143,8.50497159 5.42857143,8.61363636 L5.42857143,9.02272727 C5.42857143,9.13139205 5.52901786,9.22727273 5.64285714,9.22727273 L12.0714286,9.22727273 Z M4.35714286,10.8636364 C4.47098214,10.8636364 4.57142857,10.7677557 4.57142857,10.6590909 L4.57142857,10.25 C4.57142857,10.1413352 4.47098214,10.0454545 4.35714286,10.0454545 L3.92857143,10.0454545 C3.81473214,10.0454545 3.71428571,10.1413352 3.71428571,10.25 L3.71428571,10.6590909 C3.71428571,10.7677557 3.81473214,10.8636364 3.92857143,10.8636364 L4.35714286,10.8636364 Z M12.0714286,10.8636364 C12.1852679,10.8636364 12.2857143,10.7677557 12.2857143,10.6590909 L12.2857143,10.25 C12.2857143,10.1413352 12.1852679,10.0454545 12.0714286,10.0454545 L5.64285714,10.0454545 C5.52901786,10.0454545 5.42857143,10.1413352 5.42857143,10.25 L5.42857143,10.6590909 C5.42857143,10.7677557 5.52901786,10.8636364 5.64285714,10.8636364 L12.0714286,10.8636364 Z" id="" fill="#FFFFFF" fill-rule="nonzero"></path>
    </g>
</svg>