<?xml version="1.0" encoding="UTF-8"?>
<svg width="16px" height="16px" viewBox="0 0 16 16" version="1.1" xmlns="http://www.w3.org/2000/svg" xmlns:xlink="http://www.w3.org/1999/xlink">
    <title>Icons/00_MISC/Thrash</title>
    <g id="Icons/00_MISC/Thrash" stroke="none" stroke-width="1" fill="none" fill-rule="evenodd">
        <path d="M12.0753906,13.6242188 C12.3208333,13.6242188 12.5324219,13.5374674 12.7101563,13.3639648 C12.8878906,13.1904622 12.9767578,12.9809896 12.9767578,12.7355469 L12.9767578,4.82636719 L13.2306641,4.82636719 C13.3576172,4.82636719 13.4676432,4.78193359 13.5607422,4.69306641 C13.6538411,4.60419922 13.7003906,4.50052083 13.7003906,4.38203125 C13.7003906,4.25507813 13.655957,4.14716797 13.5670898,4.05830078 C13.4782227,3.96943359 13.3660807,3.925 13.2306641,3.925 L10.8947266,3.925 L10.8947266,3.18867188 C10.8947266,2.94322917 10.8058594,2.73375651 10.628125,2.56025391 C10.4503906,2.3867513 10.2388021,2.3 9.99335938,2.3 L6.00703125,2.3 C5.753125,2.3 5.53942057,2.3867513 5.36591797,2.56025391 C5.19241536,2.73375651 5.10566406,2.94322917 5.10566406,3.18867188 L5.10566406,3.925 L2.75703125,3.925 C2.63007813,3.925 2.52216797,3.96943359 2.43330078,4.05830078 C2.34443359,4.14716797 2.3,4.25296224 2.3,4.37568359 C2.3,4.49840495 2.34443359,4.60419922 2.43330078,4.69306641 C2.52216797,4.78193359 2.63007813,4.82636719 2.75703125,4.82636719 L3.15058594,4.82636719 L3.15058594,12.7355469 C3.15058594,12.9809896 3.23945313,13.1904622 3.4171875,13.3639648 C3.59492188,13.5374674 3.80651042,13.6242188 4.05195313,13.6242188 L12.0753906,13.6242188 Z M9.99335938,3.925 L5.99433594,3.925 L5.99433594,3.20136719 L9.99335938,3.20136719 L9.99335938,3.925 Z M12.0753906,12.7355469 L4.05195313,12.7355469 L4.05195313,4.82636719 L12.0753906,4.82636719 L12.0753906,12.7355469 Z M7.99384766,11.5041016 C8.11656901,11.5041016 8.22236328,11.459668 8.31123047,11.3708008 C8.40009766,11.2819336 8.44453125,11.1740234 8.44453125,11.0470703 L8.44453125,6.80683594 C8.44453125,6.67988281 8.39798177,6.57408854 8.30488281,6.48945313 C8.2202474,6.39635417 8.11656901,6.34980469 7.99384766,6.34980469 C7.8711263,6.34980469 7.76533203,6.39423828 7.67646484,6.48310547 C7.58759766,6.57197266 7.54316406,6.67988281 7.54316406,6.80683594 L7.54316406,11.0470703 C7.54316406,11.1740234 7.58759766,11.2819336 7.67646484,11.3708008 C7.76533203,11.459668 7.8711263,11.5041016 7.99384766,11.5041016 Z M5.52460938,11.5041016 C5.6515625,11.5041016 5.75947266,11.459668 5.84833984,11.3708008 C5.93720703,11.2819336 5.98164063,11.1740234 5.98164063,11.0470703 L5.98164063,6.80683594 C5.98164063,6.67988281 5.93509115,6.57408854 5.84199219,6.48945313 C5.75735677,6.39635417 5.6515625,6.34980469 5.52460938,6.34980469 C5.39765625,6.34980469 5.28974609,6.39423828 5.20087891,6.48310547 C5.11201172,6.57197266 5.06757813,6.67988281 5.06757813,6.80683594 L5.06757813,11.0470703 C5.06757813,11.1740234 5.11201172,11.2819336 5.20087891,11.3708008 C5.28974609,11.459668 5.39765625,11.5041016 5.52460938,11.5041016 Z M10.4376953,11.5041016 C10.5646484,11.5041016 10.6725586,11.459668 10.7614258,11.3708008 C10.850293,11.2819336 10.8947266,11.1740234 10.8947266,11.0470703 L10.8947266,6.80683594 C10.8947266,6.67988281 10.8481771,6.57408854 10.7550781,6.48945313 C10.6704427,6.39635417 10.5646484,6.34980469 10.4376953,6.34980469 C10.3107422,6.34980469 10.202832,6.39423828 10.1139648,6.48310547 C10.0250977,6.57197266 9.98066406,6.67988281 9.98066406,6.80683594 L9.98066406,11.0470703 C9.98066406,11.1740234 10.0250977,11.2819336 10.1139648,11.3708008 C10.202832,11.459668 10.3107422,11.5041016 10.4376953,11.5041016 Z" id="" fill="#FFFFFF" fill-rule="nonzero"></path>
    </g>
</svg>