<?xml version="1.0" encoding="UTF-8"?>
<svg width="16px" height="16px" viewBox="0 0 16 16" version="1.1" xmlns="http://www.w3.org/2000/svg" xmlns:xlink="http://www.w3.org/1999/xlink">
    <title>Icons/00_MISC/Tooltip</title>
    <g id="Icons/00_MISC/Tooltip" stroke="none" stroke-width="1" fill="none" fill-rule="evenodd">
        <path d="M8,14 C11.3125,14 14,11.3125 14,8 C14,4.6875 11.3125,2 8,2 C4.6875,2 2,4.6875 2,8 C2,11.3125 4.6875,14 8,14 Z M8.75,5 L7.25,5 C7.109375,5 7,4.890625 7,4.75 L7,3.5 C7,3.359375 7.109375,3.25 7.25,3.25 L8.75,3.25 C8.890625,3.25 9,3.359375 9,3.5 L9,4.75 C9,4.890625 8.890625,5 8.75,5 Z M9.75,12 L6.25,12 C6.109375,12 6,11.890625 6,11.75 L6,10.5 C6,10.359375 6.109375,10.25 6.25,10.25 L7,10.25 L7,7.75 L6.25,7.75 C6.109375,7.75 6,7.640625 6,7.5 L6,6.25 C6,6.109375 6.109375,6 6.25,6 L8.75,6 C8.890625,6 9,6.109375 9,6.25 L9,10.25 L9.75,10.25 C9.890625,10.25 10,10.359375 10,10.5 L10,11.75 C10,11.890625 9.890625,12 9.75,12 Z" id="ïš" fill="#FFFFFF" fill-rule="nonzero"></path>
    </g>
</svg>