<?xml version="1.0" encoding="UTF-8"?>
<svg width="16px" height="16px" viewBox="0 0 16 16" version="1.1" xmlns="http://www.w3.org/2000/svg" xmlns:xlink="http://www.w3.org/1999/xlink">
    <title>Icons/00_MISC/Upload</title>
    <g fill="currentColor">
        <path d="M8,12.1019108 C7.78333333,12.1019108 7.60416667,12.029724 7.4625,11.8853503 C7.32083333,11.7409766 7.25,11.5583864 7.25,11.3375796 L7.25,2.64968153 L4.775,5.17197452 C4.625,5.32484076 4.45,5.3970276 4.25,5.38853503 C4.05,5.38004246 3.875,5.29936306 3.725,5.14649682 C3.575,4.99363057 3.5,4.81104034 3.5,4.59872611 C3.5,4.38641189 3.575,4.20382166 3.725,4.05095541 L7.475,0.229299363 C7.55833333,0.144373673 7.64166667,0.08492569 7.725,0.050955414 C7.80833333,0.016985138 7.9,0 8,0 C8.1,0 8.19166667,0.016985138 8.275,0.050955414 C8.35833333,0.08492569 8.44166667,0.144373673 8.525,0.229299363 L12.3,4.07643312 C12.45,4.22929936 12.525,4.40764331 12.525,4.61146497 C12.525,4.81528662 12.45,4.99363057 12.3,5.14649682 C12.15,5.29936306 11.9708333,5.37579618 11.7625,5.37579618 C11.5541667,5.37579618 11.375,5.29936306 11.225,5.14649682 L8.75,2.64968153 L8.75,11.3375796 C8.75,11.5583864 8.67916667,11.7409766 8.5375,11.8853503 C8.39583333,12.029724 8.21666667,12.1019108 8,12.1019108 Z"></path>
        <path d="M1.5,16 C1.1,16 0.75,15.8471338 0.45,15.5414013 C0.15,15.2356688 0,14.8789809 0,14.4713376 L0,11.5923567 C0,11.3715499 0.0708333333,11.1889597 0.2125,11.044586 C0.354166667,10.9002123 0.533333333,10.8280255 0.75,10.8280255 C0.966666667,10.8280255 1.14583333,10.9002123 1.2875,11.044586 C1.42916667,11.1889597 1.5,11.3715499 1.5,11.5923567 L1.5,14.4713376 C1.5,14.4713376 1.5,14.4713376 1.5,14.4713376 C1.5,14.4713376 1.5,14.4713376 1.5,14.4713376 L14.5,14.4713376 C14.5,14.4713376 14.5,14.4713376 14.5,14.4713376 C14.5,14.4713376 14.5,14.4713376 14.5,14.4713376 L14.5,11.5923567 C14.5,11.3715499 14.5708333,11.1889597 14.7125,11.044586 C14.8541667,10.9002123 15.0333333,10.8280255 15.25,10.8280255 C15.4666667,10.8280255 15.6458333,10.9002123 15.7875,11.044586 C15.9291667,11.1889597 16,11.3715499 16,11.5923567 L16,14.4713376 C16,14.8789809 15.85,15.2356688 15.55,15.5414013 C15.25,15.8471338 14.9,16 14.5,16 L1.5,16 Z"></path>
    </g>
</svg>