<?xml version="1.0" encoding="UTF-8"?>
<svg width="16px" height="16px" viewBox="0 0 16 16" version="1.1" xmlns="http://www.w3.org/2000/svg" xmlns:xlink="http://www.w3.org/1999/xlink">
    <title>Icons/00_MISC/VolumeON</title>
    <g id="Icons/00_MISC/VolumeON" stroke="none" stroke-width="1" fill="none" fill-rule="evenodd">
        <path d="M10.6640728,13.5546882 C10.734386,13.5546882 10.8046986,13.5390631 10.8671987,13.5156256 C13.0703263,12.570312 14.5000155,10.3984344 14.5000155,7.99999404 C14.5000155,5.60155368 13.0703263,3.42967609 10.8671987,2.48436246 C10.8046986,2.46092494 10.734386,2.44529992 10.6640728,2.44529992 C10.3906356,2.44529992 10.1640728,2.67186269 10.1640728,2.94529992 C10.1640728,3.17186328 10.2812605,3.29686343 10.4687607,3.40623856 C10.5781358,3.46873864 10.703136,3.50780118 10.8203236,3.57030126 C11.0390739,3.6874889 11.2578241,3.82030156 11.4609494,3.96873923 C12.7422009,4.91405286 13.5000143,6.40624214 13.5000143,7.99999404 C13.5000143,9.59374594 12.7422009,11.0859352 11.4609494,12.0312488 C11.2578241,12.1796865 11.0390739,12.3124992 10.8203236,12.4296868 C10.703136,12.4921869 10.5781358,12.5312494 10.4687607,12.5937495 C10.2812605,12.7031246 10.1640728,12.8281248 10.1640728,13.0546876 C10.1640728,13.3281254 10.3906356,13.5546882 10.6640728,13.5546882 Z M7,12.7499997 C7.27344438,12.7499997 7.5,12.5234369 7.5,12.2499991 L7.5,3.74998838 C7.5,3.47655115 7.27344438,3.24998838 7,3.24998838 C6.8671939,3.24998838 6.74219375,3.30467594 6.64844364,3.39842605 L4.04687804,5.99999166 L2,5.99999166 C1.72656277,5.99999166 1.5,6.22655443 1.5,6.49999225 L1.5,9.49999583 C1.5,9.77343365 1.72656277,9.99999642 2,9.99999642 L4.04687804,9.99999642 L6.64844364,12.601562 C6.74219375,12.6953121 6.8671939,12.7499997 7,12.7499997 Z M9.88282249,11.7187485 C9.94532257,11.7187485 10.0156352,11.7031235 10.0781352,11.6796859 C11.546887,11.0624977 12.5000131,9.58593343 12.5000131,7.99999404 C12.5000131,6.41405465 11.546887,4.93749039 10.0781352,4.32030215 C10.0156352,4.29686463 9.94532257,4.28123961 9.87500939,4.28123961 C9.60157216,4.28123961 9.37500939,4.50780238 9.37500939,4.78123961 C9.37500939,4.99999046 9.50000954,5.14842814 9.67969725,5.24217825 C9.890635,5.35155338 10.0859477,5.44530349 10.273448,5.58592866 C11.0468864,6.14842933 11.5000119,7.0468679 11.5000119,7.99999404 C11.5000119,8.95312018 11.0468864,9.85155875 10.273448,10.4140594 C10.0859477,10.5546846 9.890635,10.6484347 9.67969725,10.7578098 C9.50000954,10.8515599 9.37500939,10.9999976 9.37500939,11.2187479 C9.37500939,11.4921857 9.60157216,11.7187485 9.88282249,11.7187485 Z M9.09375846,9.87499627 C9.15625913,9.87499627 9.22657171,9.86718377 9.28907179,9.83593373 C10.0234477,9.53905837 10.5000107,8.78124497 10.5000107,7.99999404 C10.5000107,7.21874311 10.0234477,6.4531172 9.28907179,6.16405435 C9.22657171,6.13280431 9.15625913,6.1249918 9.09375846,6.1249918 C8.82032123,6.1249918 8.59375846,6.34374207 8.59375846,6.6249918 C8.59375846,7.21874311 9.50000954,7.05468041 9.50000954,7.99999404 C9.50000954,8.94530767 8.59375846,8.78124497 8.59375846,9.37499568 C8.59375846,9.65624601 8.82032123,9.87499627 9.09375846,9.87499627 Z" id="" fill="#FFFFFF" fill-rule="nonzero"></path>
    </g>
</svg>