<?xml version="1.0" encoding="UTF-8"?>
<svg width="16px" height="16px" viewBox="0 0 16 16" version="1.1" xmlns="http://www.w3.org/2000/svg" xmlns:xlink="http://www.w3.org/1999/xlink">
    <title>Icons/00_MISC/Warning</title>
    <g id="Icons/00_MISC/Warning" stroke="none" stroke-width="1" fill="none" fill-rule="evenodd">
        <path d="M13.5966767,12.4605739 L8.43894779,3.00473761 C8.30671642,2.76231344 8.0029981,2.67298452 7.76057393,2.80521589 C7.67629068,2.85118857 7.6070249,2.92045435 7.56105221,3.00473761 L2.40332331,12.4605739 C2.27109194,12.7029981 2.36042086,13.0067164 2.60284503,13.1389478 C2.67628933,13.1790083 2.7586116,13.2 2.84227109,13.2 L13.1577289,13.2 C13.4338713,13.2 13.6577289,12.9761424 13.6577289,12.7 C13.6577289,12.6163405 13.6367372,12.5340182 13.5966767,12.4605739 Z M8.64285714,9.39230769 L7.35714286,9.39230769 L7.35714286,6.85384615 L8.64285714,6.85384615 L8.64285714,9.39230769 Z M8.64285714,11.5076923 L7.35714286,11.5076923 L7.35714286,10.2384615 L8.64285714,10.2384615 L8.64285714,11.5076923 Z" id="" fill="#FFFFFF" fill-rule="nonzero"></path>
    </g>
</svg>